<?xml version="1.0" encoding="UTF-8"?>
<svg version="1.1" xmlns="http://www.w3.org/2000/svg" width="515" height="484">
<path d="M0 0 C1.32 0 2.64 0 4 0 C2.69484216 14.60426617 -1.86873856 26.74543932 -10 39 C-8.97519531 38.4946875 -7.95039063 37.989375 -6.89453125 37.46875 C-5.53410017 36.81199017 -4.17340927 36.15576837 -2.8125 35.5 C-2.13896484 35.16613281 -1.46542969 34.83226562 -0.77148438 34.48828125 C2.96303529 32.70299868 5.75794549 31.53872805 10 32 C9.6875 33.9375 9.6875 33.9375 9 36 C8.01 36.33 7.02 36.66 6 37 C6 37.66 6 38.32 6 39 C3.8828125 40.9453125 3.8828125 40.9453125 1.125 43.125 C0.22007812 43.84945312 -0.68484375 44.57390625 -1.6171875 45.3203125 C-4 47 -4 47 -6 47 C-6 47.66 -6 48.32 -6 49 C-7.62553283 50.70680947 -9.29115995 52.37660195 -11 54 C-9.91912109 53.76023437 -9.91912109 53.76023437 -8.81640625 53.515625 C1.19258502 51.68318832 12.01822279 53.11629135 21 58 C21 59.32 21 60.64 21 62 C20.01257813 62.20496094 19.02515625 62.40992188 18.0078125 62.62109375 C16.08582031 63.02521484 16.08582031 63.02521484 14.125 63.4375 C12.84882813 63.70433594 11.57265625 63.97117188 10.2578125 64.24609375 C7.13539756 64.8347826 7.13539756 64.8347826 5 66 C5.94359375 66.14695312 6.8871875 66.29390625 7.859375 66.4453125 C18.78273294 68.35360997 28.53159695 71.43346659 37 79 C37 79.66 37 80.32 37 81 C37.66 81 38.32 81 39 81 C39 81.66 39 82.32 39 83 C39.66 83 40.32 83 41 83 C42.59842113 85.00995492 44.05870765 87.00680677 45.5 89.125 C45.90347656 89.69476563 46.30695313 90.26453125 46.72265625 90.8515625 C49.19439089 94.44088013 50.81353926 97.75711323 52 102 C51.01 102.33 50.02 102.66 49 103 C48.236875 102.525625 47.47375 102.05125 46.6875 101.5625 C43.53572151 99.73007064 41.58416911 99.74994169 38 100 C38.45141858 104.15305091 39.22444787 107.89278848 40.5 111.875 C43.38574656 121.3140922 44.40913446 131.40763759 39.703125 140.5078125 C36.56937303 145.01460012 35.72535898 145.8549282 30 147 C30 142.38 30 137.76 30 133 C24.83818759 138.16181241 23.97474117 142.19533493 23.0625 149.25 C20.59844872 165.87286905 20.59844872 165.87286905 14 172 C11.1875 172.875 11.1875 172.875 9 173 C7.39968656 169.79937313 8.96826309 167.27728194 10 164 C4.99051302 165.83038947 1.72816476 167.17324696 -1 172 C-1.83661116 175.03678986 -2.44843628 177.86655148 -2 181 C-0.71523717 183.45100631 -0.71523717 183.45100631 2 185 C5.34173093 185.59867513 8.61319933 185.56816277 12 185.5 C12.94391602 185.48791504 13.88783203 185.47583008 14.86035156 185.46337891 C26.75895212 185.12616333 36.92706233 181.71022291 45.67578125 173.41015625 C47.25242762 171.67869706 48.63571186 169.90312464 50 168 C50.49113281 167.31679688 50.98226562 166.63359375 51.48828125 165.9296875 C65.319082 144.8439706 68.25829584 115.46794653 63.875 91.125 C63.29685468 88.73816151 62.66994724 86.36271469 62 84 C61.81727539 83.32904297 61.63455078 82.65808594 61.44628906 81.96679688 C56.7501133 65.07907121 48.84539457 48.90725805 37.77734375 35.27734375 C36.18589185 33.2381867 35.04894027 31.35332195 34 29 C33.34 29 32.68 29 32 29 C32 28.34 32 27.68 32 27 C31.34 27 30.68 27 30 27 C28.73046875 25.671875 28.73046875 25.671875 27.1875 23.75 C23.28559608 19.10092299 18.86936354 15.1531549 14.26831055 11.21386719 C12.77154862 9.88837 11.37702344 8.44949836 10 7 C10 5.68 10 4.36 10 3 C14.00989171 3.61412756 18.00586539 4.29063446 22 5 C22.97453125 5.17144531 23.9490625 5.34289062 24.953125 5.51953125 C46.25686632 9.84162537 66.89997966 19.68441039 84 33 C86.21098885 34.59290091 88.42257094 36.18493065 90.63671875 37.7734375 C91.08660156 38.17820313 91.53648437 38.58296875 92 39 C92 39.66 92 40.32 92 41 C92.66 41 93.32 41 94 41 C94 41.66 94 42.32 94 43 C95.32 43.66 96.64 44.32 98 45 C98 45.66 98 46.32 98 47 C98.66 47 99.32 47 100 47 C100 47.66 100 48.32 100 49 C100.66 49 101.32 49 102 49 C103.75644379 51.02643768 105.38714022 53.05161283 107 55.1875 C107.45117188 55.76564453 107.90234375 56.34378906 108.3671875 56.93945312 C110.8312572 60.16534319 112.70783868 63.10149055 114 67 C114.66 67 115.32 67 116 67 C138.67961833 107.54840853 144.18399565 143.31530081 135 189 C134.82533203 189.89831543 134.65066406 190.79663086 134.47070312 191.72216797 C133.97564327 194.25584694 133.46085449 196.78453146 132.9375 199.3125 C132.78756592 200.07739746 132.63763184 200.84229492 132.4831543 201.63037109 C132.02734375 203.73828125 132.02734375 203.73828125 131 207 C130.01 207.33 129.02 207.66 128 208 C127.90295776 206.19704468 127.90295776 206.19704468 127.80395508 204.35766602 C125.65384345 164.55302972 125.65384345 164.55302972 116 126 C115.67 125.01 115.34 124.02 115 123 C115.13631836 123.88014771 115.13631836 123.88014771 115.27539062 124.77807617 C120.99526835 162.54760212 117.57796364 197.24368751 95 229 C92.95832596 231.68435752 90.8793765 234.31828265 88.7265625 236.9140625 C86.9643765 238.98810225 86.9643765 238.98810225 85.3984375 241.2734375 C84.93695313 241.84320313 84.47546875 242.41296875 84 243 C83.34 243 82.68 243 82 243 C81.62681641 243.87398438 81.62681641 243.87398438 81.24609375 244.765625 C79.82428441 247.31507622 78.25850689 248.83616159 76.0625 250.75 C75.02802734 251.67039062 75.02802734 251.67039062 73.97265625 252.609375 C72 254 72 254 69 254 C69.59345943 250.56028788 70.47353586 247.596592 71.890625 244.41015625 C72.26799805 243.55107666 72.64537109 242.69199707 73.03417969 241.80688477 C73.63601074 240.44841431 73.63601074 240.44841431 74.25 239.0625 C82.08529712 220.98235123 88.14930705 202.73401936 90 183 C89.74420166 183.59312988 89.48840332 184.18625977 89.22485352 184.79736328 C83.97623192 196.88006669 78.55146871 208.187002 71 219 C70.29617188 220.11375 69.59234375 221.2275 68.8671875 222.375 C68.25101563 223.24125 67.63484375 224.1075 67 225 C66.34 225 65.68 225 65 225 C64.74959961 225.57347168 64.49919922 226.14694336 64.24121094 226.73779297 C61.79482215 231.19653382 57.82443292 234.55746819 54.25 238.125 C53.39543213 238.97795654 52.54086426 239.83091309 51.66040039 240.7097168 C44.90389884 247.33727024 37.98895665 252.95595212 30 258 C29.13375 258.56589844 28.2675 259.13179688 27.375 259.71484375 C10.05184924 270.62509735 10.05184924 270.62509735 2 270 C3.4049045 266.77484337 5.05125186 264.76445918 7.6328125 262.390625 C8.35726562 261.71773438 9.08171875 261.04484375 9.828125 260.3515625 C10.58609375 259.65804688 11.3440625 258.96453125 12.125 258.25 C23.88623055 247.47886627 23.88623055 247.47886627 34.375 235.5 C34.82979736 234.91831055 35.28459473 234.33662109 35.75317383 233.73730469 C39.32698819 229.07253646 42.56377537 224.22544607 45.6875 219.25 C46.12175293 218.55841797 46.55600586 217.86683594 47.00341797 217.15429688 C49.23961364 213.82190635 49.23961364 213.82190635 50 210 C49.31292969 210.6496875 48.62585938 211.299375 47.91796875 211.96875 C47.01691406 212.8040625 46.11585938 213.639375 45.1875 214.5 C44.29417969 215.3353125 43.40085937 216.170625 42.48046875 217.03125 C40 219 40 219 37 219 C37 219.66 37 220.32 37 221 C18.99220323 230.42816585 3.00452557 234.2429841 -17.25 234.3125 C-18.98914673 234.32071777 -18.98914673 234.32071777 -20.76342773 234.32910156 C-50.1130215 234.08745539 -73.37686724 223.49757336 -94 203 C-95.03500926 201.69365639 -96.05265307 200.37124454 -97 199 C-92.59225247 215.74944062 -80.32620265 230.70667823 -68.65234375 243.0390625 C-67 245 -67 245 -67 247 C-66.34 247 -65.68 247 -65 247 C-65 247.66 -65 248.32 -65 249 C-64.34 249 -63.68 249 -63 249 C-63 249.66 -63 250.32 -63 251 C-62.34 251 -61.68 251 -61 251 C-61 251.66 -61 252.32 -61 253 C-60.34 253 -59.68 253 -59 253 C-59 253.66 -59 254.32 -59 255 C-58.34 255 -57.68 255 -57 255 C-57 255.66 -57 256.32 -57 257 C-56.34 257 -55.68 257 -55 257 C-55 257.66 -55 258.32 -55 259 C-54.34 259 -53.68 259 -53 259 C-53 259.66 -53 260.32 -53 261 C-52.195625 261.3403125 -52.195625 261.3403125 -51.375 261.6875 C-48.21499137 263.43382056 -45.7323017 265.6402849 -43 268 C-43.33 269.32 -43.66 270.64 -44 272 C-60.5817303 267.34221059 -74.92704839 256.85440021 -88 246 C-88.78503906 245.443125 -89.57007813 244.88625 -90.37890625 244.3125 C-90.91386719 243.879375 -91.44882813 243.44625 -92 243 C-92 242.34 -92 241.68 -92 241 C-92.66 241 -93.32 241 -94 241 C-94 240.34 -94 239.68 -94 239 C-94.66 239 -95.32 239 -96 239 C-96 238.34 -96 237.68 -96 237 C-96.61875 236.7525 -97.2375 236.505 -97.875 236.25 C-100.35068687 234.79371361 -100.95125002 233.62187494 -102 231 C-102.66 231 -103.32 231 -104 231 C-104 230.34 -104 229.68 -104 229 C-104.66 229 -105.32 229 -106 229 C-107.64079108 226.99323322 -109.14293473 224.99541632 -110.625 222.875 C-111.07085449 222.24045898 -111.51670898 221.60591797 -111.97607422 220.95214844 C-120.24758749 209.00407893 -126.31709791 196.33063735 -132 183 C-129.33984703 205.34528495 -123.53653526 225.61650828 -113.4387207 245.80981445 C-111 250.71733321 -111 250.71733321 -111 254 C-120.82187305 252.51999173 -130.59814156 238.76633397 -136.28222656 231.3203125 C-145.54177921 218.6840769 -152.0504119 205.14769669 -156.4375 190.125 C-156.8082666 188.86018799 -156.8082666 188.86018799 -157.18652344 187.56982422 C-159.94249423 177.50718907 -160.19402941 167.38094986 -160.1875 157 C-160.18814453 155.92435791 -160.18878906 154.84871582 -160.18945312 153.74047852 C-160.12646217 144.06778727 -159.27892865 134.58054589 -158 125 C-165.41093765 147.81865781 -168.13995794 169.36856097 -168.65869141 193.27075195 C-168.67489029 193.9558786 -168.69108917 194.64100525 -168.70777893 195.34689331 C-168.75144939 197.23369404 -168.78911186 199.12063103 -168.82641602 201.00756836 C-169 204 -169 204 -170 207 C-170.99 206.67 -171.98 206.34 -173 206 C-173.95141602 203.34228516 -173.95141602 203.34228516 -174.75390625 199.7890625 C-174.89988251 199.15403305 -175.04585876 198.5190036 -175.19625854 197.86473083 C-175.66746686 195.78798517 -176.11671893 193.7073423 -176.5625 191.625 C-176.71751984 190.91616669 -176.87253967 190.20733337 -177.03225708 189.47702026 C-186.38341673 146.59552544 -182.87088383 106.42269221 -158.890625 68.89453125 C-158.26671875 67.93933594 -157.6428125 66.98414063 -157 66 C-156.41734375 65.07574219 -155.8346875 64.15148437 -155.234375 63.19921875 C-152.24707358 58.53699833 -152.24707358 58.53699833 -151 57 C-150.34 57 -149.68 57 -149 57 C-148.73058594 56.41476563 -148.46117187 55.82953125 -148.18359375 55.2265625 C-135.35562347 31.09473722 -100.37969371 15.17230288 -75.59765625 7.32421875 C-67.6637174 4.94454234 -59.29842114 3 -51 3 C-51.56132934 6.5371438 -52.69557747 7.99261679 -55.4375 10.25 C-56.05496094 10.77078125 -56.67242187 11.2915625 -57.30859375 11.828125 C-59 13 -59 13 -61 13 C-61 13.66 -61 14.32 -61 15 C-62.609375 16.55078125 -62.609375 16.55078125 -64.75 18.3125 C-67.91761349 20.98762235 -70.43092965 23.73925686 -73 27 C-73.66 27 -74.32 27 -75 27 C-75.2475 27.55300781 -75.495 28.10601562 -75.75 28.67578125 C-77.2369524 31.44058336 -79.0535884 33.72320389 -81 36.1875 C-93.83568622 52.96167774 -108.52351899 78.04340279 -107 100 C-106.443125 98.948125 -105.88625 97.89625 -105.3125 96.8125 C-103.2982364 93.26046527 -101.0009416 90.75086314 -98 88 C-95 89 -95 89 -94 91 C-85.84404598 92.11944467 -79.5599274 88.70663322 -73 84 C-71.30905117 81.64065252 -70.84388341 79.84810652 -70 77 C-67.29330992 73.7360502 -64.34336363 71.52295454 -60.8125 69.25 C-52.81628889 64.06973034 -41.34091076 55.68182153 -37 47 C-36.34 47 -35.68 47 -35 47 C-35 46.34 -35 45.68 -35 45 C-34.34 45 -33.68 45 -33 45 C-32.74605469 44.4225 -32.49210938 43.845 -32.23046875 43.25 C-30.85929121 40.74270392 -29.29737242 39.0567059 -27.3125 37 C-17.53021022 26.32985247 -8.44250781 14.36230054 -1.39453125 1.703125 C-0.93433594 1.14109375 -0.47414063 0.5790625 0 0 Z M-49 78 C-49 78.66 -49 79.32 -49 80 C-49.99 80.33 -50.98 80.66 -52 81 C-50.68 81.33 -49.36 81.66 -48 82 C-47.67 80.68 -47.34 79.36 -47 78 C-47.66 78 -48.32 78 -49 78 Z M-47 97 C-47 97.99 -47 98.98 -47 100 C-47.58265625 100.10183594 -48.1653125 100.20367187 -48.765625 100.30859375 C-52.97086371 101.60986517 -55.84772799 105.03686431 -59 108 C-59.68835938 108.63550781 -60.37671875 109.27101563 -61.0859375 109.92578125 C-65.86945548 114.4985312 -69.55264105 119.35886718 -73 125 C-72.67 125.66 -72.34 126.32 -72 127 C-71.21625 126.79375 -70.4325 126.5875 -69.625 126.375 C-68.325625 126.189375 -68.325625 126.189375 -67 126 C-66.34 126.66 -65.68 127.32 -65 128 C-62.15410963 127.84648724 -61.10830313 127.10654923 -59.0703125 125.1015625 C-52.20861699 116.36599031 -46.8170631 108.08408491 -45 97 C-45.66 97 -46.32 97 -47 97 Z M-84 103 C-83.67 104.98 -83.34 106.96 -83 109 C-84.65 109.33 -86.3 109.66 -88 110 C-88 111.65 -88 113.3 -88 115 C-95.33638764 114.72828194 -99.96973876 112.03802573 -106 108 C-106.99 107.34 -107.98 106.68 -109 106 C-109.58023293 134.14129717 -104.60996952 158.15639804 -86.1015625 179.90234375 C-84.25896147 182.2354829 -84.25896147 182.2354829 -82 182 C-82 182.66 -82 183.32 -82 184 C-80.15299396 185.48964838 -80.15299396 185.48964838 -77.8125 186.9375 C-76.99136719 187.47503906 -76.17023438 188.01257813 -75.32421875 188.56640625 C-72.95851972 190.08247072 -72.95851972 190.08247072 -70.125 191.375 C-66.79514872 193.92135686 -66.23108875 197.04755717 -65 201 C-64.67 201 -64.34 201 -64 201 C-63.91363281 199.81664062 -63.82726562 198.63328125 -63.73828125 197.4140625 C-63.03611892 189.13520086 -62.39367418 182.0253073 -58.0234375 174.75 C-56.83172362 173.05014271 -56.83172362 173.05014271 -57 171 C-56.34 171 -55.68 171 -55 171 C-53.49950064 169.51638306 -53.49950064 169.51638306 -51.9375 167.5625 C-42.70735461 156.78138756 -32.19739965 148.29596265 -20.82421875 139.9140625 C-8.87874018 131.89581064 -8.87874018 131.89581064 0 121 C0.65690162 115.01914462 0.65690162 115.01914462 -2.3125 110 C-4.84277939 107.70149462 -4.84277939 107.70149462 -8 108 C-9.36410468 108.9165329 -10.68934988 109.89166471 -11.98828125 110.8984375 C-17.23978635 114.51847927 -21.93396754 115.13118804 -28.1875 115.625 C-36.76883763 116.363676 -41.41109191 117.32355756 -47.5625 123.625 C-52.59449758 130.0737736 -55.54685225 136.84334047 -56 145 C-56.78375 144.79375 -57.5675 144.5875 -58.375 144.375 C-59.24125 144.25125 -60.1075 144.1275 -61 144 C-63.43835668 145.99103192 -63.43835668 145.99103192 -63.1953125 149.9140625 C-63.18200376 151.48449351 -63.15813602 153.05486221 -63.125 154.625 C-63.11597656 155.42679688 -63.10695312 156.22859375 -63.09765625 157.0546875 C-63.07406223 159.03658523 -63.03819065 161.01832981 -63 163 C-68.42589849 162.17958923 -71.45468059 160.14058292 -75 156 C-78.88961549 149.2170565 -78.31610287 141.57476135 -78 134 C-78.47308594 134.42152344 -78.94617188 134.84304687 -79.43359375 135.27734375 C-84.48424492 139.46160642 -88.39308636 141.29654011 -95 141 C-98.875 140.4375 -98.875 140.4375 -102 139 C-103.77777666 136.24731356 -105 134.31026991 -105 131 C-103.35 131 -101.7 131 -100 131 C-100 128.03 -100 125.06 -100 122 C-99.01 122 -98.02 122 -97 122 C-96.690625 122.804375 -96.38125 123.60875 -96.0625 124.4375 C-95.23664655 126.89080405 -95.23664655 126.89080405 -94 128 C-90.66857722 128.50125283 -90.66857722 128.50125283 -87 128 C-84.49317447 125.81221507 -84.49317447 125.81221507 -82 123 C-81.1028125 122.04222656 -80.205625 121.08445312 -79.28125 120.09765625 C-78.35298376 119.08702272 -77.42590879 118.07529379 -76.5 117.0625 C-76.03980469 116.56298828 -75.57960937 116.06347656 -75.10546875 115.54882812 C-72.79480761 113.02662758 -70.55557805 110.47541286 -68.3984375 107.8203125 C-63.56679753 102.13880752 -57.93598151 98.60099307 -51 96 C-51 95.67 -51 95.34 -51 95 C-62.78288975 94.22310617 -74.0711717 96.38078113 -84 103 Z M-157 120 C-156 122 -156 122 -156 122 Z " fill="#E8D34A" transform="translate(283,100)"/>
<path d="M0 0 C1.15224028 0.92961422 2.29659176 1.8690125 3.4375 2.8125 C4.39462891 3.59560547 4.39462891 3.59560547 5.37109375 4.39453125 C7 6 7 6 8 9 C8.66 9 9.32 9 10 9 C10 9.66 10 10.32 10 11 C10.66 11 11.32 11 12 11 C12 11.66 12 12.32 12 13 C12.66 13 13.32 13 14 13 C14 13.66 14 14.32 14 15 C14.66 15 15.32 15 16 15 C16 15.66 16 16.32 16 17 C16.66 17 17.32 17 18 17 C18 17.66 18 18.32 18 19 C18.66 19 19.32 19 20 19 C20 19.66 20 20.32 20 21 C20.66 21 21.32 21 22 21 C22 21.66 22 22.32 22 23 C22.53625 23.226875 23.0725 23.45375 23.625 23.6875 C26.78500863 25.43382056 29.2676983 27.6402849 32 30 C31.67 31.32 31.34 32.64 31 34 C16.11418183 29.8185904 0.46155417 20.4091959 -11 10 C-11 9.34 -11 8.68 -11 8 C-9.35 8 -7.7 8 -6 8 C-6 8.66 -6 9.32 -6 10 C-4.68 10 -3.36 10 -2 10 C-2 7.69 -2 5.38 -2 3 C-1.34 2.67 -0.68 2.34 0 2 C0 1.34 0 0.68 0 0 Z " fill="#E0CA3A" transform="translate(208,338)"/>
<path d="M0 0 C0.33 0.66 0.66 1.32 1 2 C4.6758821 3.55203911 7.19010598 4.46534385 11 3 C11 3.66 11 4.32 11 5 C12.98 4.34 14.96 3.68 17 3 C17.2266333 3.54414551 17.4532666 4.08829102 17.68676758 4.64892578 C18.72650716 7.14186243 19.769477 9.63343542 20.8125 12.125 C21.34713867 13.40890625 21.34713867 13.40890625 21.89257812 14.71875 C23.4184805 18.35851713 24.95719032 21.91665876 26.76171875 25.4296875 C28 28 28 28 28 31 C18.52204769 29.57181541 9.78078697 16.94511509 4 10 C2.06232487 7.37090776 0.52962795 4.90101853 -1 2 C-0.67 1.34 -0.34 0.68 0 0 Z " fill="#D9C238" transform="translate(144,323)"/>
<path d="M0 0 C0.33 0.66 0.66 1.32 1 2 C1.66 2 2.32 2 3 2 C2.4740625 3.1446875 2.4740625 3.1446875 1.9375 4.3125 C0.67639116 7.04759379 0.67639116 7.04759379 2 10 C2.66 10 3.32 10 4 10 C4.33 9.34 4.66 8.68 5 8 C4.69348433 11.02939657 4.51573436 12.55148742 2.171875 14.58984375 C-17.45005525 25.50849848 -17.45005525 25.50849848 -24 25 C-22.58008113 21.72455159 -20.87799709 19.69691494 -18.26171875 17.28515625 C-17.52373047 16.59873047 -16.78574219 15.91230469 -16.02539062 15.20507812 C-15.25388672 14.49802734 -14.48238281 13.79097656 -13.6875 13.0625 C-12.16995286 11.65822186 -10.65301091 10.25328938 -9.13671875 8.84765625 C-8.42306152 8.18781738 -7.7094043 7.52797852 -6.97412109 6.84814453 C-4.59187152 4.61791583 -2.28437887 2.32997525 0 0 Z " fill="#CDB533" transform="translate(309,345)"/>
<path d="M0 0 C-0.495 0.433125 -0.99 0.86625 -1.5 1.3125 C-3.33218192 2.99740483 -3.33218192 2.99740483 -3 6 C-4.50390625 7.578125 -4.50390625 7.578125 -6.5625 9.25 C-13.50740389 15.1047867 -19.53840296 20.97566247 -24 29 C-24 29.66 -24 30.32 -24 31 C-24.66 31 -25.32 31 -26 31 C-25.67 28.36 -25.34 25.72 -25 23 C-27.76223278 23 -28.89281454 24.31425163 -31 26 C-31.66 25.67 -32.32 25.34 -33 25 C-32.41992188 24.35933594 -31.83984375 23.71867187 -31.2421875 23.05859375 C-30.46101562 22.19363281 -29.67984375 21.32867187 -28.875 20.4375 C-28.04871094 19.52355469 -27.22242188 18.60960937 -26.37109375 17.66796875 C-24.5018253 15.56465681 -22.70923422 13.43399371 -20.9375 11.25 C-16.3064414 5.82577667 -7.53227915 -2.51075972 0 0 Z " fill="#DFCE50" transform="translate(235,196)"/>
<path d="M0 0 C0.33 0.66 0.66 1.32 1 2 C1.66 2 2.32 2 3 2 C3 2.66 3 3.32 3 4 C3.66 4 4.32 4 5 4 C5 4.66 5 5.32 5 6 C5.66 6 6.32 6 7 6 C7 6.66 7 7.32 7 8 C7.66 8 8.32 8 9 8 C9 8.66 9 9.32 9 10 C9.66 10 10.32 10 11 10 C11 10.66 11 11.32 11 12 C11.66 12 12.32 12 13 12 C13 12.66 13 13.32 13 14 C13.53625 14.226875 14.0725 14.45375 14.625 14.6875 C17.78500863 16.43382056 20.2676983 18.6402849 23 21 C22.67 22.32 22.34 23.64 22 25 C12.90689644 22.17928216 5.10593075 17.87539192 -3 13 C-2.67 12.01 -2.34 11.02 -2 10 C0.0625 9.3125 0.0625 9.3125 2 9 C2 8.01 2 7.02 2 6 C2 5.01 2 4.02 2 3 C1.01 3 0.02 3 -1 3 C-0.67 2.01 -0.34 1.02 0 0 Z " fill="#D1BE36" transform="translate(217,347)"/>
<path d="M0 0 C4.017585 4.017585 5.12555556 6.29397412 5.1328125 12 C5.13410156 12.969375 5.13539062 13.93875 5.13671875 14.9375 C5.13285156 15.948125 5.12898438 16.95875 5.125 18 C5.12886719 19.010625 5.13273437 20.02125 5.13671875 21.0625 C5.13542969 22.031875 5.13414063 23.00125 5.1328125 24 C5.13168457 24.886875 5.13055664 25.77375 5.12939453 26.6875 C5 29 5 29 4 32 C3.01 31.67 2.02 31.34 1 31 C0.10864258 28.45556641 0.10864258 28.45556641 -0.60546875 25.1015625 C-0.86650391 23.90015625 -1.12753906 22.69875 -1.39648438 21.4609375 C-1.65751953 20.19507813 -1.91855469 18.92921875 -2.1875 17.625 C-2.46013672 16.366875 -2.73277344 15.10875 -3.01367188 13.8125 C-5 4.51309915 -5 4.51309915 -5 1 C-2 0 -2 0 0 0 Z " fill="#D6C133" transform="translate(109,275)"/>
<path d="M0 0 C2 3 2 3 2 5 C2.99 5 3.98 5 5 5 C5.33 5.66 5.66 6.32 6 7 C7.99285937 7.37366113 9.99363529 7.70740515 12 8 C12.33 8.33 12.66 8.66 13 9 C14.76747729 9.12562235 16.54060292 9.17576558 18.3125 9.1875 C19.27800781 9.20167969 20.24351562 9.21585937 21.23828125 9.23046875 C24.01519158 8.99873224 25.63473141 8.42140844 28 7 C28.495 8.485 28.495 8.485 29 10 C30.95679688 9.98259766 30.95679688 9.98259766 32.953125 9.96484375 C42.36225721 9.90722947 51.6394479 9.93457131 61 11 C61 11.33 61 11.66 61 12 C53.76587949 13.12331064 46.62419918 13.18360458 39.3125 13.1875 C38.12205078 13.19974609 36.93160156 13.21199219 35.70507812 13.22460938 C22.01181449 13.24694749 6.09361825 12.05461064 -6 5 C-6 3.68 -6 2.36 -6 1 C-4.02 0.67 -2.04 0.34 0 0 Z " fill="#CBB436" transform="translate(227,321)"/>
<path d="M0 0 C1.32 0 2.64 0 4 0 C3.71710528 2.25111973 3.42335307 4.50087686 3.125 6.75 C2.96257812 8.00296875 2.80015625 9.2559375 2.6328125 10.546875 C2.0941645 13.48616408 1.51991159 15.47107147 0 18 C-0.886875 17.731875 -1.77375 17.46375 -2.6875 17.1875 C-6.12069309 16.62692157 -6.12069309 16.62692157 -8.625 19.0625 C-11.06902428 21.989116 -11.06902428 21.989116 -13.1875 25.3125 C-13.785625 26.199375 -14.38375 27.08625 -15 28 C-15.66 28 -16.32 28 -17 28 C-16.56323012 22.80839433 -13.82649215 19.66282121 -10.75 15.6875 C-7.63052218 11.57907814 -4.6156843 7.5567487 -2.0625 3.0625 C-1.381875 2.051875 -0.70125 1.04125 0 0 Z " fill="#ECDF76" transform="translate(283,100)"/>
<path d="M0 0 C2 3 2 3 2 5 C5.11332248 4.33131686 5.11332248 4.33131686 6.1875 1.9375 C6.455625 1.298125 6.72375 0.65875 7 0 C7.33 0 7.66 0 8 0 C9.25 6.625 9.25 6.625 7 10 C6.34 10 5.68 10 5 10 C4.75121094 10.58265625 4.50242187 11.1653125 4.24609375 11.765625 C2.82428441 14.31507622 1.25850689 15.83616159 -0.9375 17.75 C-1.62714844 18.36359375 -2.31679688 18.9771875 -3.02734375 19.609375 C-5 21 -5 21 -8 21 C-7.32512263 16.18080529 -5.42034091 12.08116134 -3.4375 7.6875 C-2.9434668 6.57665039 -2.9434668 6.57665039 -2.43945312 5.44335938 C-1.63082877 3.62688438 -0.81602884 1.81316069 0 0 Z " fill="#DBC637" transform="translate(360,333)"/>
<path d="M0 0 C-0.3125 1.9375 -0.3125 1.9375 -1 4 C-1.99 4.33 -2.98 4.66 -4 5 C-4 5.66 -4 6.32 -4 7 C-5.96875 8.5078125 -5.96875 8.5078125 -8.5 10.125 C-9.75296875 10.93324219 -9.75296875 10.93324219 -11.03125 11.7578125 C-12.00578125 12.37269531 -12.00578125 12.37269531 -13 13 C-13.66 12.67 -14.32 12.34 -15 12 C-15 12.66 -15 13.32 -15 14 C-16.65 14.33 -18.3 14.66 -20 15 C-20 14.34 -20 13.68 -20 13 C-19.01 13 -18.02 13 -17 13 C-17 12.34 -17 11.68 -17 11 C-17.99 11 -18.98 11 -20 11 C-20 9.68 -20 8.36 -20 7 C-17.60945893 5.8212678 -15.21354785 4.65697003 -12.8125 3.5 C-12.13896484 3.16613281 -11.46542969 2.83226562 -10.77148438 2.48828125 C-7.03696471 0.70299868 -4.24205451 -0.46127195 0 0 Z " fill="#E9DD6E" transform="translate(293,132)"/>
<path d="M0 0 C1.89693861 0.28438952 3.79252027 0.57783792 5.6875 0.875 C6.74324219 1.03742188 7.79898437 1.19984375 8.88671875 1.3671875 C11.84071044 1.96762245 14.32081937 2.61937719 17 4 C17.33 4.99 17.66 5.98 18 7 C17.01 7.495 17.01 7.495 16 8 C15.67 8.99 15.34 9.98 15 11 C14.01 11.33 13.02 11.66 12 12 C11.34 11.34 10.68 10.68 10 10 C9.05125 9.71125 8.1025 9.4225 7.125 9.125 C3.73990197 7.90636471 2.17346192 6.84221944 0 4 C0 2.68 0 1.36 0 0 Z " fill="#EFE279" transform="translate(293,103)"/>
<path d="M0 0 C1 3 1 3 0.2578125 4.8671875 C-0.11601563 5.52976563 -0.48984375 6.19234375 -0.875 6.875 C-2.51409579 9.93915158 -3.49032635 12.53421919 -4 16 C-4.33 16.66 -4.66 17.32 -5 18 C-4.01 18 -3.02 18 -2 18 C-2 19.32 -2 20.64 -2 22 C-2.639375 22.12375 -3.27875 22.2475 -3.9375 22.375 C-4.618125 22.58125 -5.29875 22.7875 -6 23 C-6.33 23.66 -6.66 24.32 -7 25 C-7.515625 25.433125 -8.03125 25.86625 -8.5625 26.3125 C-10.26545111 27.97323686 -10.26545111 27.97323686 -10.1875 30.6875 C-10.0946875 31.8321875 -10.0946875 31.8321875 -10 33 C-10.66 33 -11.32 33 -12 33 C-12.33 33.99 -12.66 34.98 -13 36 C-13.66 36 -14.32 36 -15 36 C-12.78030054 23.21759274 -6.89047679 10.93200645 0 0 Z M-6 19 C-5 21 -5 21 -5 21 Z " fill="#E4CB2E" transform="translate(121,174)"/>
<path d="M0 0 C0.66 0.66 1.32 1.32 2 2 C1.625 4.125 1.625 4.125 1 6 C0.34 6 -0.32 6 -1 6 C-1.33 7.98 -1.66 9.96 -2 12 C-2.66 12 -3.32 12 -4 12 C-4 13.32 -4 14.64 -4 16 C-3.34 16.33 -2.68 16.66 -2 17 C-2.78375 17.391875 -3.5675 17.78375 -4.375 18.1875 C-7.35156418 20.24274669 -7.98823563 21.59679258 -9 25 C-9.33 25 -9.66 25 -10 25 C-10 22.69 -10 20.38 -10 18 C-9.34 18 -8.68 18 -8 18 C-8 16.68 -8 15.36 -8 14 C-8.99 14.33 -9.98 14.66 -11 15 C-12.10844919 11.67465243 -11.84454356 9.37817425 -11 6 C-10.01 6.33 -9.02 6.66 -8 7 C-7.67 7.99 -7.34 8.98 -7 10 C-6.34 10.33 -5.68 10.66 -5 11 C-4.5978125 9.39125 -4.5978125 9.39125 -4.1875 7.75 C-3.13772173 4.43491072 -2.25387672 2.56122354 0 0 Z " fill="#CAB22B" transform="translate(133,202)"/>
<path d="M0 0 C2.75979741 3.28585851 4.18309468 6.62228796 5.6875 10.625 C6.12449219 11.77226562 6.56148438 12.91953125 7.01171875 14.1015625 C8 17 8 17 8 19 C6.72125 18.896875 5.4425 18.79375 4.125 18.6875 C3.40570313 18.62949219 2.68640625 18.57148438 1.9453125 18.51171875 C0 18 0 18 -2 15 C-1.94140625 12.9140625 -1.94140625 12.9140625 -1.5625 10.625 C-1.07441921 7.14600552 -1.00572524 4.42472417 -2 1 C-1.34 0.67 -0.68 0.34 0 0 Z M-1 13 C0 15 0 15 0 15 Z " fill="#D2BA2C" transform="translate(410,190)"/>
<path d="M0 0 C2.04119788 1.61594832 4.04072937 3.2856382 6 5 C6 5.66 6 6.32 6 7 C5.34 7 4.68 7 4 7 C4 7.66 4 8.32 4 9 C3.34 9 2.68 9 2 9 C1.67 9.99 1.34 10.98 1 12 C0.01 12.495 0.01 12.495 -1 13 C-0.01 14.32 0.98 15.64 2 17 C1.67 17.66 1.34 18.32 1 19 C-1.00593724 17.54927753 -3.00460174 16.09008971 -5 14.625 C-5.57234375 14.2125 -6.1446875 13.8 -6.734375 13.375 C-8.19315312 12.29828281 -9.60100976 11.15333422 -11 10 C-11 9.34 -11 8.68 -11 8 C-9.35 8 -7.7 8 -6 8 C-6 8.66 -6 9.32 -6 10 C-4.68 10 -3.36 10 -2 10 C-2 7.69 -2 5.38 -2 3 C-1.34 2.67 -0.68 2.34 0 2 C0 1.34 0 0.68 0 0 Z " fill="#E0C83D" transform="translate(208,338)"/>
<path d="M0 0 C0.99 0.33 1.98 0.66 3 1 C3 14.86 3 28.72 3 43 C2.67 43 2.34 43 2 43 C0.10115284 28.62301438 -0.24187541 14.49205849 0 0 Z " fill="#AE9B27" transform="translate(101,232)"/>
<path d="M0 0 C0.33 0.66 0.66 1.32 1 2 C1.66 2 2.32 2 3 2 C2.67 2.886875 2.34 3.77375 2 4.6875 C1.08777857 7.70923347 0.81669042 9.88373706 1 13 C-0.98 13.33 -2.96 13.66 -5 14 C-5 13.34 -5 12.68 -5 12 C-5.99 12 -6.98 12 -8 12 C-8.33 12.66 -8.66 13.32 -9 14 C-9.33 13.34 -9.66 12.68 -10 12 C-7.75812902 7.09590723 -3.84780996 3.65805495 0 0 Z " fill="#E0CA36" transform="translate(309,345)"/>
<path d="M0 0 C0.33 1.32 0.66 2.64 1 4 C0.34 4 -0.32 4 -1 4 C-1.24492187 4.57234375 -1.48984375 5.1446875 -1.7421875 5.734375 C-3.21110099 8.38024402 -4.95348244 10.14853139 -7.125 12.25 C-7.84945313 12.95640625 -8.57390625 13.6628125 -9.3203125 14.390625 C-9.87460937 14.92171875 -10.42890625 15.4528125 -11 16 C-12 13 -12 13 -11 10 C-11.33 9.34 -11.66 8.68 -12 8 C-11.09515208 6.84481082 -10.1755794 5.70114594 -9.25 4.5625 C-8.73953125 3.92441406 -8.2290625 3.28632813 -7.703125 2.62890625 C-5.29998885 0.33049392 -3.25377706 0 0 0 Z " fill="#DDC63E" transform="translate(349,321)"/>
<path d="M0 0 C0.66 0 1.32 0 2 0 C3.0707478 5.20466954 3.86434846 10.42984839 4.625 15.6875 C4.77195312 16.63044922 4.91890625 17.57339844 5.0703125 18.54492188 C5.95154516 24.70931381 6.49929937 30.88010378 5 37 C4.01 37.495 4.01 37.495 3 38 C2.94465088 37.23856689 2.88930176 36.47713379 2.83227539 35.69262695 C2.57891641 32.23233914 2.32075807 28.77242548 2.0625 25.3125 C1.97548828 24.11431641 1.88847656 22.91613281 1.79882812 21.68164062 C1.66831055 19.94624023 1.66831055 19.94624023 1.53515625 18.17578125 C1.41732788 16.58117065 1.41732788 16.58117065 1.29711914 14.9543457 C1.05202116 12.03750006 1.05202116 12.03750006 0.47045898 9.35229492 C-0.15660781 6.21696093 -0.06250157 3.18758026 0 0 Z " fill="#BBA62E" transform="translate(407,252)"/>
<path d="M0 0 C3.08089673 2.77280706 4.68775452 5.06326356 6 9 C6.66 9 7.32 9 8 9 C8.96189997 10.72718516 9.91936508 12.45684058 10.875 14.1875 C11.67550781 15.63189453 11.67550781 15.63189453 12.4921875 17.10546875 C13.85075726 19.71350033 15.08309697 22.20585867 16 25 C15.67 25.66 15.34 26.32 15 27 C14.01 26.67 13.02 26.34 12 26 C12.33 25.01 12.66 24.02 13 23 C12.01 23.33 11.02 23.66 10 24 C10.103125 23.236875 10.20625 22.47375 10.3125 21.6875 C10.209375 20.800625 10.10625 19.91375 10 19 C9.175 18.566875 8.35 18.13375 7.5 17.6875 C6.675 17.130625 5.85 16.57375 5 16 C4.52759714 13.2100443 4.76612843 10.85323321 5 8 C4.34 8 3.68 8 3 8 C0 2.25 0 2.25 0 0 Z " fill="#C8B22D" transform="translate(391,158)"/>
<path d="M0 0 C0.625 1.8125 0.625 1.8125 1 4 C0.01 5.485 0.01 5.485 -1 7 C-0.67 7.66 -0.34 8.32 0 9 C-1.38650433 11.77300866 -3.34253248 12.45496074 -6 14 C-10.18936254 16.5390076 -11.75726864 19.75482993 -14 24 C-14.99 23.67 -15.98 23.34 -17 23 C-15.3832351 20.4943127 -13.75724022 17.99557389 -12.125 15.5 C-11.66480469 14.78457031 -11.20460938 14.06914062 -10.73046875 13.33203125 C-10.28574219 12.65527344 -9.84101563 11.97851562 -9.3828125 11.28125 C-8.97434082 10.65283203 -8.56586914 10.02441406 -8.14501953 9.37695312 C-7.76716309 8.92255859 -7.38930664 8.46816406 -7 8 C-6.34 8 -5.68 8 -5 8 C-4.731875 7.4225 -4.46375 6.845 -4.1875 6.25 C-2.98280141 3.9674132 -1.59201885 2.0262058 0 0 Z " fill="#C6B331" transform="translate(139,149)"/>
<path d="M0 0 C1.98 0.495 1.98 0.495 4 1 C4 7.6 4 14.2 4 21 C3.01 20.67 2.02 20.34 1 20 C-1.88541622 13.66975012 -0.92220009 6.6672574 0 0 Z " fill="#DCC33A" transform="translate(108,282)"/>
<path d="M0 0 C0.33 1.32 0.66 2.64 1 4 C1.66 4 2.32 4 3 4 C3 4.66 3 5.32 3 6 C4.32 5.34 5.64 4.68 7 4 C6.46939601 8.51013391 4.69113883 11.38378219 2 15 C1.67 15 1.34 15 1 15 C1 13.35 1 11.7 1 10 C0.34 10 -0.32 10 -1 10 C-1 9.01 -1 8.02 -1 7 C-1.66 7 -2.32 7 -3 7 C-3.33 8.65 -3.66 10.3 -4 12 C-5.65 12.33 -7.3 12.66 -9 13 C-6.09700957 8.59175527 -3.08418637 4.28359219 0 0 Z M0 4 C1 6 1 6 1 6 Z " fill="#DDC24D" transform="translate(231,214)"/>
<path d="M0 0 C0.99 0 1.98 0 3 0 C3 0.99 3 1.98 3 3 C3.556875 2.7525 4.11375 2.505 4.6875 2.25 C7 2 7 2 9.75 3.9375 C10.86375 4.9584375 10.86375 4.9584375 12 6 C11.67 7.32 11.34 8.64 11 10 C4.61767245 7.83023946 -1.26734492 5.56698538 -7 2 C-3.98968256 1.06576355 -3.13349732 0.95550089 0 2 C0 1.34 0 0.68 0 0 Z " fill="#DCC739" transform="translate(228,362)"/>
<path d="M0 0 C0.66 0 1.32 0 2 0 C3.42979399 4.73918963 2.69973251 9.08348721 2.1875 13.9375 C2.10435547 14.83146484 2.02121094 15.72542969 1.93554688 16.64648438 C1.48520365 21.07431154 1.00141214 24.95495183 -1 29 C-1.33 29 -1.66 29 -2 29 C-1.67 24.05 -1.34 19.1 -1 14 C-1.66 14.99 -2.32 15.98 -3 17 C-3.33 15.02 -3.66 13.04 -4 11 C-3.34 10.67 -2.68 10.34 -2 10 C-1.38567131 7.68149993 -1.38567131 7.68149993 -1 5 C-0.66666667 3.33333333 -0.33333333 1.66666667 0 0 Z " fill="#C8B330" transform="translate(374,269)"/>
<path d="M0 0 C0.33 0 0.66 0 1 0 C1.18160945 15.1744786 0.64415049 30.00792342 -2 45 C-2.33 45 -2.66 45 -3 45 C-3.02705308 42.58325776 -3.04686438 40.1668206 -3.0625 37.75 C-3.07087891 37.06808594 -3.07925781 36.38617188 -3.08789062 35.68359375 C-3.11336164 30.43656413 -3.11336164 30.43656413 -2.51147461 28.11865234 C-1.8859385 25.52752952 -1.80179535 23.09376482 -1.71875 20.4296875 C-1.68136719 19.36878906 -1.64398438 18.30789062 -1.60546875 17.21484375 C-1.53490978 14.98047652 -1.464599 12.74610144 -1.39453125 10.51171875 C-1.35714844 9.45339844 -1.31976563 8.39507812 -1.28125 7.3046875 C-1.25095703 6.33515137 -1.22066406 5.36561523 -1.18945312 4.36669922 C-1 2 -1 2 0 0 Z " fill="#B8A02C" transform="translate(422,235)"/>
<path d="M0 0 C0.99 0.66 1.98 1.32 3 2 C1.55049545 5.7910119 -0.15172566 9.3874638 -2 13 C-2.66 13 -3.32 13 -4 13 C-4.33 14.32 -4.66 15.64 -5 17 C-5.99 16.67 -6.98 16.34 -8 16 C-7.34 16 -6.68 16 -6 16 C-5.67 13.69 -5.34 11.38 -5 9 C-5.66 9 -6.32 9 -7 9 C-6.8125 7.1875 -6.8125 7.1875 -6 5 C-3.5 3.375 -3.5 3.375 -1 2 C-0.67 1.34 -0.34 0.68 0 0 Z " fill="#ECD95C" transform="translate(208,217)"/>
<path d="M0 0 C0.33 0 0.66 0 1 0 C1.08564209 0.57443848 1.17128418 1.14887695 1.25952148 1.74072266 C1.65165543 4.36889383 2.04457143 6.99694752 2.4375 9.625 C2.57220703 10.52863281 2.70691406 11.43226563 2.84570312 12.36328125 C3.52689444 16.91563297 4.22367548 21.46264699 5 26 C4.34 26 3.68 26 3 26 C3 24.35 3 22.7 3 21 C2.01 21 1.02 21 0 21 C0 18.36 0 15.72 0 13 C-0.66 13.66 -1.32 14.32 -2 15 C-2.66 12.69 -3.32 10.38 -4 8 C-3.34 8 -2.68 8 -2 8 C-2.04125 7.05125 -2.0825 6.1025 -2.125 5.125 C-2 2 -2 2 0 0 Z " fill="#D9BF39" transform="translate(150,285)"/>
<path d="M0 0 C2.97 0.495 2.97 0.495 6 1 C7.09658936 4.28976808 6.79953138 5.71303767 6 9 C6.66 9.33 7.32 9.66 8 10 C7.67 11.65 7.34 13.3 7 15 C4.03 14.505 4.03 14.505 1 14 C1.66 13.67 2.32 13.34 3 13 C3 11.68 3 10.36 3 9 C2.01 8.34 1.02 7.68 0 7 C-0.1875 3.375 -0.1875 3.375 0 0 Z " fill="#CDAF2C" transform="translate(392,208)"/>
<path d="M0 0 C-0.3125 1.9375 -0.3125 1.9375 -1 4 C-1.99 4.33 -2.98 4.66 -4 5 C-4 5.66 -4 6.32 -4 7 C-5.96147874 8.38938077 -7.96166576 9.7260411 -10 11 C-11 8 -11 8 -10 5 C-10.99 4.67 -11.98 4.34 -13 4 C-4.738041 -0.59225513 -4.738041 -0.59225513 0 0 Z " fill="#E8DA5F" transform="translate(293,132)"/>
<path d="M0 0 C2.97 0.495 2.97 0.495 6 1 C4.56590028 4.35861695 2.80630679 6.35874939 0.0625 8.75 C-0.62714844 9.36359375 -1.31679688 9.9771875 -2.02734375 10.609375 C-4 12 -4 12 -7 12 C-6.39009109 8.44219804 -5.4216319 5.3171411 -4 2 C-3.34 2.66 -2.68 3.32 -2 4 C-1.01 3.67 -0.02 3.34 1 3 C0.67 2.01 0.34 1.02 0 0 Z " fill="#BDA736" transform="translate(359,342)"/>
<path d="M0 0 C0.99 0.33 1.98 0.66 3 1 C3.66 4.63 4.32 8.26 5 12 C3.35 12 1.7 12 0 12 C-2.0285962 9.56568456 -3.09623139 8.09062242 -2.8125 4.875 C-2 3 -2 3 0 0 Z " fill="#E4CA3B" transform="translate(160,330)"/>
<path d="M0 0 C1.32 0.33 2.64 0.66 4 1 C-0.34791253 6.99712073 -5.94293949 10.82052217 -12 15 C-12.33 13.68 -12.66 12.36 -13 11 C-12.0409375 10.5978125 -12.0409375 10.5978125 -11.0625 10.1875 C-8.66868314 9.11332248 -8.66868314 9.11332248 -8 6 C-5.44829129 4.4161808 -2.92393881 3.62655832 0 3 C0 2.01 0 1.02 0 0 Z " fill="#C9B735" transform="translate(328,341)"/>
<path d="M0 0 C1.64727891 4.94183673 -0.15839046 9.63133869 -1.25 14.625 C-1.46785156 15.70007813 -1.68570312 16.77515625 -1.91015625 17.8828125 C-2.13058594 18.90375 -2.35101563 19.9246875 -2.578125 20.9765625 C-2.87831543 22.38542725 -2.87831543 22.38542725 -3.18457031 23.82275391 C-3.58820801 24.90049072 -3.58820801 24.90049072 -4 26 C-4.99 26.33 -5.98 26.66 -7 27 C-6.88570603 25.22844346 -6.75816963 23.45773771 -6.625 21.6875 C-6.55539062 20.70136719 -6.48578125 19.71523438 -6.4140625 18.69921875 C-6 16 -6 16 -4 13 C-3.60986284 11.0103005 -3.26797351 9.00980131 -3 7 C-2.34 7 -1.68 7 -1 7 C-1.020625 6.030625 -1.04125 5.06125 -1.0625 4.0625 C-1 1 -1 1 0 0 Z " fill="#BCA937" transform="translate(418,281)"/>
<path d="M0 0 C0.66 0.66 1.32 1.32 2 2 C0.90497536 10.21268478 -2.61574913 17.51846427 -6 25 C-6.33 25 -6.66 25 -7 25 C-7 23.35 -7 21.7 -7 20 C-7.66 19.67 -8.32 19.34 -9 19 C-8.34 19 -7.68 19 -7 19 C-7 18.34 -7 17.68 -7 17 C-6.01 17 -5.02 17 -4 17 C-4 15.35 -4 13.7 -4 12 C-3.34 12 -2.68 12 -2 12 C-2.20625 11.0925 -2.4125 10.185 -2.625 9.25 C-3.01898408 5.83547132 -2.80313453 4.80487594 -1 2 C-0.67 1.34 -0.34 0.68 0 0 Z " fill="#C2B031" transform="translate(395,286)"/>
<path d="M0 0 C0.66 0 1.32 0 2 0 C2.23509196 4.81938524 1.45184478 8.46298506 0 13 C-1.875 12.6875 -1.875 12.6875 -4 12 C-6 9 -6 9 -6 6 C-4.35 5.67 -2.7 5.34 -1 5 C-0.67 3.35 -0.34 1.7 0 0 Z " fill="#EBD85D" transform="translate(228,221)"/>
<path d="M0 0 C0.99 0 1.98 0 3 0 C4.375 2.4375 4.375 2.4375 5 6 C3.35786888 9.27893064 1.2632094 12.1230389 -1 15 C-1.66 13.68 -2.32 12.36 -3 11 C-2.34 10.34 -1.68 9.68 -1 9 C-0.79536062 7.05115442 -0.79536062 7.05115442 -0.9375 4.9375 C-0.958125 3.638125 -0.97875 2.33875 -1 1 C-0.67 0.67 -0.34 0.34 0 0 Z " fill="#D3BF3D" transform="translate(355,304)"/>
<path d="M0 0 C0.33 0 0.66 0 1 0 C1.33 4.95 1.66 9.9 2 15 C-3 16 -3 16 -4.80078125 15.00390625 C-6.20052083 13.66927083 -7.60026042 12.33463542 -9 11 C-7.625 9.5 -7.625 9.5 -6 8 C-5.34 8 -4.68 8 -4 8 C-4 8.66 -4 9.32 -4 10 C-3.34 10 -2.68 10 -2 10 C-1.67 10.66 -1.34 11.32 -1 12 C-0.67 8.04 -0.34 4.08 0 0 Z " fill="#C4B439" transform="translate(219,248)"/>
<path d="M0 0 C0.66 0 1.32 0 2 0 C2.33 1.98 2.66 3.96 3 6 C1.35 6.33 -0.3 6.66 -2 7 C-1.814375 7.804375 -1.62875 8.60875 -1.4375 9.4375 C-1.293125 10.283125 -1.14875 11.12875 -1 12 C-1.33 12.33 -1.66 12.66 -2 13 C-9.60344828 12.39655172 -9.60344828 12.39655172 -12 10 C-11.01 9.67 -10.02 9.34 -9 9 C-9 9.66 -9 10.32 -9 11 C-7.68 11 -6.36 11 -5 11 C-5.020625 10.195625 -5.04125 9.39125 -5.0625 8.5625 C-5 6 -5 6 -4 5 C-2.33382885 4.95936168 -0.66611905 4.957279 1 5 C0.67 3.35 0.34 1.7 0 0 Z " fill="#CBA631" transform="translate(197,203)"/>
<path d="M0 0 C1.12670431 3.38011294 0.84431821 4.50457306 0.00390625 7.88671875 C-0.33930664 9.2934082 -0.33930664 9.2934082 -0.68945312 10.72851562 C-0.93630859 11.70498047 -1.18316406 12.68144531 -1.4375 13.6875 C-1.68048828 14.67556641 -1.92347656 15.66363281 -2.17382812 16.68164062 C-2.77531863 19.12298445 -3.38430006 21.56220809 -4 24 C-6.67927341 19.98108988 -6.15601248 17.75838077 -6 13 C-5.67 13 -5.34 13 -5 13 C-4.67 10.36 -4.34 7.72 -4 5 C-3.34 5 -2.68 5 -2 5 C-1.855625 4.360625 -1.71125 3.72125 -1.5625 3.0625 C-1 1 -1 1 0 0 Z " fill="#C6AB2F" transform="translate(122,227)"/>
<path d="M0 0 C-0.495 0.433125 -0.99 0.86625 -1.5 1.3125 C-3.33218192 2.99740483 -3.33218192 2.99740483 -3 6 C-4.75 7.60546875 -4.75 7.60546875 -7 9.1875 C-7.7425 9.71730469 -8.485 10.24710938 -9.25 10.79296875 C-9.8275 11.19128906 -10.405 11.58960938 -11 12 C-10.67 10.68 -10.34 9.36 -10 8 C-9.34 8 -8.68 8 -8 8 C-7.67 7.01 -7.34 6.02 -7 5 C-8.98 5 -10.96 5 -13 5 C-9.76220634 1.00037254 -4.97776602 -1.65925534 0 0 Z " fill="#C7B638" transform="translate(235,196)"/>
<path d="M0 0 C0.66 0 1.32 0 2 0 C2.02900455 3.6041498 2.04680018 7.20826962 2.0625 10.8125 C2.07087891 11.83666016 2.07925781 12.86082031 2.08789062 13.91601562 C2.09111328 14.89892578 2.09433594 15.88183594 2.09765625 16.89453125 C2.10289307 17.80050049 2.10812988 18.70646973 2.11352539 19.63989258 C2 22 2 22 1 25 C0.01 24.67 -0.98 24.34 -2 24 C-1.76228882 23.15743652 -1.76228882 23.15743652 -1.51977539 22.29785156 C-0.97811638 19.90325571 -0.79358526 17.68561447 -0.68359375 15.234375 C-0.64169922 14.34492188 -0.59980469 13.45546875 -0.55664062 12.5390625 C-0.51732422 11.61867188 -0.47800781 10.69828125 -0.4375 9.75 C-0.39431641 8.81414062 -0.35113281 7.87828125 -0.30664062 6.9140625 C-0.2008195 4.60951359 -0.09873443 2.30486161 0 0 Z " fill="#BB972F" transform="translate(112,282)"/>
<path d="M0 0 C5.94 0.99 5.94 0.99 12 2 C11.01 2.33 10.02 2.66 9 3 C9 3.66 9 4.32 9 5 C8.01 5 7.02 5 6 5 C5.67 6.32 5.34 7.64 5 9 C2.5 6.75 2.5 6.75 0 4 C0 2.68 0 1.36 0 0 Z " fill="#E7D663" transform="translate(293,103)"/>
<path d="M0 0 C0.66 0 1.32 0 2 0 C2 0.99 2 1.98 2 3 C1.34 3 0.68 3 0 3 C0.04125 3.928125 0.0825 4.85625 0.125 5.8125 C0 9 0 9 -2 12 C-2.39387788 14.32387947 -2.73486085 16.65793749 -3 19 C-3.33 19 -3.66 19 -4 19 C-4.24942657 16.75215576 -4.47383488 14.50152494 -4.6875 12.25 C-4.87892578 10.37054688 -4.87892578 10.37054688 -5.07421875 8.453125 C-4.99485632 4.76068358 -4.53835868 3.58403608 -2 1 C-1.34 1.33 -0.68 1.66 0 2 C0 1.34 0 0.68 0 0 Z " fill="#E5CB41" transform="translate(415,285)"/>
<path d="M0 0 C1 3 1 3 0.2578125 4.8671875 C-0.11601563 5.52976563 -0.48984375 6.19234375 -0.875 6.875 C-2.5217499 9.95419673 -3.42314355 12.53886127 -4 16 C-5.0625 18.3125 -5.0625 18.3125 -6 20 C-6.66 20 -7.32 20 -8 20 C-8 20.66 -8 21.32 -8 22 C-8.66 22 -9.32 22 -10 22 C-7.707015 14.04199322 -4.05100513 7.18082279 0 0 Z " fill="#BEAC2E" transform="translate(121,174)"/>
<path d="M0 0 C-0.39803561 2.88575819 -0.79009069 3.82189513 -3.0625 5.75 C-3.701875 6.1625 -4.34125 6.575 -5 7 C-7 6 -7 6 -8 4 C-8.99 4.33 -9.98 4.66 -11 5 C-11.99 4.67 -12.98 4.34 -14 4 C-14 3.34 -14 2.68 -14 2 C-12.4176994 1.66179834 -10.83410625 1.32964061 -9.25 1 C-8.36828125 0.814375 -7.4865625 0.62875 -6.578125 0.4375 C-4 0 -4 0 0 0 Z " fill="#E8DB67" transform="translate(232,103)"/>
<path d="M0 0 C2.6875 0.875 2.6875 0.875 5 2 C3.52307692 6.67692308 3.52307692 6.67692308 0.875 8.3125 C-0.053125 8.6528125 -0.053125 8.6528125 -1 9 C-1 8.34 -1 7.68 -1 7 C-1.66 7 -2.32 7 -3 7 C-3.1875 4.625 -3.1875 4.625 -3 2 C-2.01 1.34 -1.02 0.68 0 0 Z " fill="#EBD95F" transform="translate(235,211)"/>
<path d="M0 0 C0.99 0 1.98 0 3 0 C3.99 1.98 4.98 3.96 6 6 C4.68 6.33 3.36 6.66 2 7 C2.33 8.65 2.66 10.3 3 12 C-0.68754757 11.50168276 -2.60490662 10.89932357 -5 8 C-3.68 8 -2.36 8 -1 8 C-0.67 5.36 -0.34 2.72 0 0 Z " fill="#D4BB40" transform="translate(183,222)"/>
<path d="M0 0 C2.375 1 2.375 1 4 2 C3.67 3.32 3.34 4.64 3 6 C-0.3 5.34 -3.6 4.68 -7 4 C-7.33 3.01 -7.66 2.02 -8 1 C-5.2201184 -0.3899408 -3.0813674 -0.18488204 0 0 Z " fill="#E6CE3E" transform="translate(225,358)"/>
<path d="M0 0 C2 2 2 2 3 4 C3.66 4.33 4.32 4.66 5 5 C4.67 5.5775 4.34 6.155 4 6.75 C2.72924102 9.19883862 2.72924102 9.19883862 3 13 C3.66 13.33 4.32 13.66 5 14 C4.67 14.66 4.34 15.32 4 16 C3.01 15.67 2.02 15.34 1 15 C0.05078125 12.05859375 0.05078125 12.05859375 -0.6875 8.4375 C-0.93886719 7.23996094 -1.19023437 6.04242188 -1.44921875 4.80859375 C-1.72185547 3.41833984 -1.72185547 3.41833984 -2 2 C-1.34 2 -0.68 2 0 2 C0 1.34 0 0.68 0 0 Z " fill="#D9C030" transform="translate(403,228)"/>
<path d="M0 0 C1.65 0 3.3 0 5 0 C5 0.66 5 1.32 5 2 C5.86625 2.061875 5.86625 2.061875 6.75 2.125 C10.13312465 3.44065958 11.19222685 5.96552364 13 9 C12.67 9.66 12.34 10.32 12 11 C9.99406276 9.54927753 7.99539826 8.09008971 6 6.625 C5.42765625 6.2125 4.8553125 5.8 4.265625 5.375 C2.80684688 4.29828281 1.39899024 3.15333422 0 2 C0 1.34 0 0.68 0 0 Z " fill="#CBB839" transform="translate(197,346)"/>
<path d="M0 0 C4.67105792 1.55701931 8.08705685 4.08447373 12 7 C8.91190305 8.76462683 7.76687864 9 4 9 C2.68 6.03 1.36 3.06 0 0 Z " fill="#C7B43A" transform="translate(354,125)"/>
<path d="M0 0 C0.99 0.33 1.98 0.66 3 1 C2.0843974 2.22995949 1.16745797 3.45892386 0.25 4.6875 C-0.56791016 5.78384766 -0.56791016 5.78384766 -1.40234375 6.90234375 C-2.66022945 8.55389538 -3.97636743 10.1610856 -5.3125 11.75 C-6.94367884 13.92490512 -7.60593707 15.34007519 -8 18 C-8.66 18 -9.32 18 -10 18 C-9.5020163 14.26512223 -9.12508244 12.18762365 -7 9 C-6.34 9 -5.68 9 -5 9 C-4.855625 8.38125 -4.71125 7.7625 -4.5625 7.125 C-4 5 -4 5 -3 3 C-2.01 3 -1.02 3 0 3 C0 2.01 0 1.02 0 0 Z " fill="#D2AD3B" transform="translate(219,209)"/>
<path d="M0 0 C-0.33 0.99 -0.66 1.98 -1 3 C-3.94389782 4.17755913 -4.89953913 4.03348696 -8 3 C-8.66 2.34 -9.32 1.68 -10 1 C-12.06874034 0.3574765 -12.06874034 0.3574765 -14 0 C-14 -0.33 -14 -0.66 -14 -1 C-4.58997722 -2.51708428 -4.58997722 -2.51708428 0 0 Z " fill="#F3E26A" transform="translate(297,169)"/>
<path d="M0 0 C0.33 0.66 0.66 1.32 1 2 C0.01 2.495 0.01 2.495 -1 3 C-2.03013277 4.64821244 -3.03114628 6.31503702 -4 8 C-5 9 -5 9 -7.5625 9.0625 C-8.366875 9.041875 -9.17125 9.02125 -10 9 C-10 9.99 -10 10.98 -10 12 C-11.32 11.67 -12.64 11.34 -14 11 C-12.04364894 9.35175927 -10.08504561 7.70633688 -8.125 6.0625 C-7.56941406 5.59392578 -7.01382813 5.12535156 -6.44140625 4.64257812 C-2.2265625 1.11328125 -2.2265625 1.11328125 0 0 Z " fill="#BFB030" transform="translate(160,131)"/>
<path d="M0 0 C5 6.36363636 5 6.36363636 5 11 C0.75177626 10.52797514 -1.19989709 8.03344482 -4 5 C-2.68 5 -1.36 5 0 5 C0 3.35 0 1.7 0 0 Z " fill="#C1B33C" transform="translate(167,343)"/>
<path d="M0 0 C0 3.20395416 -0.74335022 5.09399739 -2 8 C-2.99 8 -3.98 8 -5 8 C-5.6496875 8.8971875 -5.6496875 8.8971875 -6.3125 9.8125 C-8.4963624 12.64343274 -10.71548791 13.67221852 -14 15 C-14.66 14.67 -15.32 14.34 -16 14 C-15.26394531 13.40832031 -14.52789062 12.81664062 -13.76953125 12.20703125 C-12.79371094 11.41683594 -11.81789063 10.62664062 -10.8125 9.8125 C-9.36810547 8.64654297 -9.36810547 8.64654297 -7.89453125 7.45703125 C-5.09649579 5.08191073 -2.5544533 2.62917223 0 0 Z " fill="#C4A534" transform="translate(280,224)"/>
<path d="M0 0 C0.33 0 0.66 0 1 0 C2.52154349 7.31849842 3.9191403 14.61750063 2 22 C1.34 22.33 0.68 22.66 0 23 C0 15.41 0 7.82 0 0 Z " fill="#D3BA34" transform="translate(410,267)"/>
<path d="M0 0 C0 2 0 2 -2 4.125 C-2.66 4.74375 -3.32 5.3625 -4 6 C-2.68 6.66 -1.36 7.32 0 8 C-3.50776784 9.60355101 -6.14354879 10.22036864 -10 10 C-8.50006099 6.10015857 -4.53875449 0 0 0 Z " fill="#B5A234" transform="translate(295,360)"/>
<path d="M0 0 C2.475 0.99 2.475 0.99 5 2 C4.01 2.495 4.01 2.495 3 3 C3 3.99 3 4.98 3 6 C0.69 6.33 -1.62 6.66 -4 7 C-4 6.01 -4 5.02 -4 4 C-2.68 3.34 -1.36 2.68 0 2 C0 1.34 0 0.68 0 0 Z " fill="#DAC53A" transform="translate(295,360)"/>
<path d="M0 0 C4.776653 7.1649795 4.25359769 15.67354252 4 24 C3.67 24 3.34 24 3 24 C2.49061655 21.50159546 1.99236886 19.00176612 1.5 16.5 C1.35691406 15.80390625 1.21382813 15.1078125 1.06640625 14.390625 C0.11722627 9.50912797 -0.13440046 4.97281701 0 0 Z " fill="#AD952B" transform="translate(418,211)"/>
<path d="M0 0 C1.2734375 1.515625 1.2734375 1.515625 2 4 C0.90409289 6.80362999 -0.73192538 9.23790036 -2.375 11.75 C-2.81328125 12.44738281 -3.2515625 13.14476562 -3.703125 13.86328125 C-4.78779605 15.58460705 -5.89207861 17.29354637 -7 19 C-7.66 17.68 -8.32 16.36 -9 15 C-8.01 15 -7.02 15 -6 15 C-6 14.01 -6 13.02 -6 12 C-5.34 12 -4.68 12 -4 12 C-3.67 10.02 -3.34 8.04 -3 6 C-2.34 6 -1.68 6 -1 6 C-0.67 4.02 -0.34 2.04 0 0 Z " fill="#C0A133" transform="translate(386,309)"/>
<path d="M0 0 C0.66 0 1.32 0 2 0 C2 0.66 2 1.32 2 2 C2.94875 1.95875 3.8975 1.9175 4.875 1.875 C8 2 8 2 10 4 C9.34 4.66 8.68 5.32 8 6 C7.67 6.99 7.34 7.98 7 9 C6.01 7.68 5.02 6.36 4 5 C3.67 5.66 3.34 6.32 3 7 C2.34 7 1.68 7 1 7 C0.67 4.69 0.34 2.38 0 0 Z " fill="#CAAE34" transform="translate(182,294)"/>
<path d="M0 0 C0.66 0.66 1.32 1.32 2 2 C1.625 4.125 1.625 4.125 1 6 C0.34 6 -0.32 6 -1 6 C-1.33 7.98 -1.66 9.96 -2 12 C-2.99 11.67 -3.98 11.34 -5 11 C-3.92289822 6.69159287 -2.96052484 3.36423277 0 0 Z " fill="#DDC52C" transform="translate(133,202)"/>
<path d="M0 0 C0.66 0.66 1.32 1.32 2 2 C1.505 2.61875 1.01 3.2375 0.5 3.875 C-1.19222773 5.83880904 -1.19222773 5.83880904 -1 8 C-2.28817344 9.37701298 -3.62804426 10.70644173 -5 12 C-5.5775 12.5775 -6.155 13.155 -6.75 13.75 C-7.36875 14.36875 -7.36875 14.36875 -8 15 C-6.66666667 11 -5.33333333 7 -4 3 C-3.01 3 -2.02 3 -1 3 C-0.67 2.01 -0.34 1.02 0 0 Z " fill="#E2CC30" transform="translate(126,170)"/>
<path d="M0 0 C1.55465374 3.10930748 2.41595096 5.21361399 3.125 8.5 C3.29257813 9.2528125 3.46015625 10.005625 3.6328125 10.78125 C4 13 4 13 4 17 C3.34 17 2.68 17 2 17 C2 15.35 2 13.7 2 12 C1.01 12 0.02 12 -1 12 C-0.67 8.04 -0.34 4.08 0 0 Z " fill="#C4B236" transform="translate(151,294)"/>
<path d="M0 0 C-0.928125 0.8971875 -0.928125 0.8971875 -1.875 1.8125 C-4.13676954 4.00811144 -4.13676954 4.00811144 -6 7 C-7.32 6.01 -8.64 5.02 -10 4 C-7.56830601 0.23087432 -7.56830601 0.23087432 -5 -0.8125 C-3 -1 -3 -1 0 0 Z " fill="#EDDB5C" transform="translate(229,201)"/>
<path d="M0 0 C2 3 2 3 2 6 C-0.31 6 -2.62 6 -5 6 C-5.33 4.35 -5.66 2.7 -6 1 C-4.02 0.67 -2.04 0.34 0 0 Z " fill="#D6C23A" transform="translate(227,321)"/>
<path d="M0 0 C0.763125 0.20625 1.52625 0.4125 2.3125 0.625 C1.3225 1.12 1.3225 1.12 0.3125 1.625 C0.3125 2.285 0.3125 2.945 0.3125 3.625 C3.2825 4.12 3.2825 4.12 6.3125 4.625 C6.3125 5.615 6.3125 6.605 6.3125 7.625 C2.00485185 6.05858249 -1.74921464 3.94163844 -5.6875 1.625 C-2.6875 -0.375 -2.6875 -0.375 0 0 Z " fill="#CFBB39" transform="translate(213.6875,317.375)"/>
<path d="M0 0 C2.10715097 2.80953463 3.66589463 5.05846964 5.1875 8.125 C5.53167969 8.80820312 5.87585938 9.49140625 6.23046875 10.1953125 C7 12 7 12 7 14 C6.01 14 5.02 14 4 14 C4 12.35 4 10.7 4 9 C3.34 9 2.68 9 2 9 C1.67 9.99 1.34 10.98 1 12 C0.67 8.04 0.34 4.08 0 0 Z " fill="#C3B239" transform="translate(185,301)"/>
<path d="M0 0 C0.33 0 0.66 0 1 0 C1.33 2.64 1.66 5.28 2 8 C2.66 8 3.32 8 4 8 C4.33 7.01 4.66 6.02 5 5 C5.66 5.33 6.32 5.66 7 6 C4.6875 8.5 4.6875 8.5 2 11 C1.01 11 0.02 11 -1 11 C-0.67 7.37 -0.34 3.74 0 0 Z " fill="#BF9D32" transform="translate(314,236)"/>
<path d="M0 0 C0 1.98 0 3.96 0 6 C-0.66 6 -1.32 6 -2 6 C-2.33 7.32 -2.66 8.64 -3 10 C-3.33 8.68 -3.66 7.36 -4 6 C-4.99 6.66 -5.98 7.32 -7 8 C-7.33 7.01 -7.66 6.02 -8 5 C-7.01 5 -6.02 5 -5 5 C-4.87625 4.360625 -4.7525 3.72125 -4.625 3.0625 C-4.41875 2.381875 -4.2125 1.70125 -4 1 C-2 0 -2 0 0 0 Z " fill="#C4B13A" transform="translate(208,229)"/>
<path d="M0 0 C1.17571451 3.67410785 1.07366746 7.16929183 1 11 C0.34 11 -0.32 11 -1 11 C-1.33 11.99 -1.66 12.98 -2 14 C-2.66 14 -3.32 14 -4 14 C-3.52372025 12.04096255 -3.04388577 10.08278903 -2.5625 8.125 C-2.29566406 7.03445312 -2.02882813 5.94390625 -1.75390625 4.8203125 C-1 2 -1 2 0 0 Z " fill="#BCA629" transform="translate(110,196)"/>
<path d="M0 0 C-0.33 1.65 -0.66 3.3 -1 5 C-2.98 5.66 -4.96 6.32 -7 7 C-7 7.66 -7 8.32 -7 9 C-7.66 9 -8.32 9 -9 9 C-7.39537511 4.18612534 -5.52128094 0 0 0 Z " fill="#EAD664" transform="translate(258,138)"/>
<path d="M0 0 C3.63 0 7.26 0 11 0 C11 0.66 11 1.32 11 2 C11.66 2.33 12.32 2.66 13 3 C12.01 3.495 12.01 3.495 11 4 C10.01 3.67 9.02 3.34 8 3 C6.43881572 2.93259135 4.8749748 2.91485544 3.3125 2.9375 C2.50425781 2.94652344 1.69601562 2.95554688 0.86328125 2.96484375 C0.24839844 2.97644531 -0.36648438 2.98804688 -1 3 C-0.67 2.01 -0.34 1.02 0 0 Z " fill="#DBCD5A" transform="translate(277,153)"/>
<path d="M0 0 C0.99 0.33 1.98 0.66 3 1 C2.525625 2.134375 2.05125 3.26875 1.5625 4.4375 C-0.1348234 8.91298952 -0.68094105 13.24712186 -1 18 C-1.33 18 -1.66 18 -2 18 C-1.98839844 17.08476562 -1.97679687 16.16953125 -1.96484375 15.2265625 C-1.95582031 14.03804687 -1.94679688 12.84953125 -1.9375 11.625 C-1.92589844 10.44164062 -1.91429687 9.25828125 -1.90234375 8.0390625 C-1.78533407 5.08078479 -1.78533407 5.08078479 -3 3 C-2.01 2.34 -1.02 1.68 0 1 C0 0.67 0 0.34 0 0 Z " fill="#C1A732" transform="translate(307,234)"/>
<path d="M0 0 C3.26954202 0.56371414 4.82575883 1.49962266 7 4 C6.34 4 5.68 4 5 4 C5 4.99 5 5.98 5 7 C3.68 7.33 2.36 7.66 1 8 C0.67 5.36 0.34 2.72 0 0 Z " fill="#ECD95F" transform="translate(213,227)"/>
<path d="M0 0 C2.13586678 3.20380017 2.23132175 4.01939967 2.125 7.6875 C2.10695313 8.49574219 2.08890625 9.30398437 2.0703125 10.13671875 C2.03550781 11.05904297 2.03550781 11.05904297 2 12 C0.68 11.67 -0.64 11.34 -2 11 C-1.40049704 7.31733897 -0.75241109 3.65456815 0 0 Z " fill="#E6CA34" transform="translate(419,224)"/>
<path d="M0 0 C0.33 1.32 0.66 2.64 1 4 C0.34 4 -0.32 4 -1 4 C-1 6.31 -1 8.62 -1 11 C-1.99 11 -2.98 11 -4 11 C-4.25 5.375 -4.25 5.375 -2 2 C-1.34 2 -0.68 2 0 2 C0 1.34 0 0.68 0 0 Z " fill="#E7CE31" transform="translate(124,216)"/>
<path d="M0 0 C0.625 1.8125 0.625 1.8125 1 4 C0.01 5.485 0.01 5.485 -1 7 C-1.99 7 -2.98 7 -4 7 C-5.69719127 7.94726954 -7.36935236 8.94228261 -9 10 C-9 9.01 -9 8.02 -9 7 C-8.01 7 -7.02 7 -6 7 C-5.67 6.01 -5.34 5.02 -5 4 C-4.01 3.34 -3.02 2.68 -2 2 C-1.34 1.34 -0.68 0.68 0 0 Z " fill="#BEAB30" transform="translate(279,202)"/>
<path d="M0 0 C0.33 0.99 0.66 1.98 1 3 C3.00016466 4.20882096 3.00016466 4.20882096 5 5 C4.67 5.99 4.34 6.98 4 8 C2.35 8.33 0.7 8.66 -1 9 C-2.60031344 5.79937313 -1.03173691 3.27728194 0 0 Z " fill="#CFB642" transform="translate(293,264)"/>
<path d="M0 0 C0.625 1.8125 0.625 1.8125 1 4 C0.01 5.485 0.01 5.485 -1 7 C-0.67 7.66 -0.34 8.32 0 9 C-0.33 9.66 -0.66 10.32 -1 11 C-1.99 11 -2.98 11 -4 11 C-4.36630156 7.06225823 -4.30233203 5.43460229 -2 2.125 C-1.34 1.42375 -0.68 0.7225 0 0 Z " fill="#C9B62E" transform="translate(139,149)"/>
<path d="M0 0 C1.32 0 2.64 0 4 0 C3.67 2.64 3.34 5.28 3 8 C1 7 -1 6 -3 5 C-1.75 2.5 -1.75 2.5 0 0 Z " fill="#E6D76B" transform="translate(283,100)"/>
<path d="M0 0 C1.76462683 3.08809695 2 4.23312136 2 8 C0.02 8.33 -1.96 8.66 -4 9 C-4.33 8.34 -4.66 7.68 -5 7 C-4.34 6.67 -3.68 6.34 -3 6 C-1.95191959 4.02477154 -0.9479589 2.02518491 0 0 Z " fill="#E4C93A" transform="translate(200,338)"/>
<path d="M0 0 C3.26954202 0.56371414 4.82575883 1.49962266 7 4 C5.68 5.32 4.36 6.64 3 8 C0 2.25 0 2.25 0 0 Z " fill="#E1C946" transform="translate(177,231)"/>
<path d="M0 0 C0.33 0.99 0.66 1.98 1 3 C2.65 3.33 4.3 3.66 6 4 C5.67 5.65 5.34 7.3 5 9 C4.34 7.68 3.68 6.36 3 5 C2.34 5 1.68 5 1 5 C0.67 5.66 0.34 6.32 0 7 C-0.93423645 3.98968256 -1.04449911 3.13349732 0 0 Z " fill="#D9C541" transform="translate(208,224)"/>
<path d="M0 0 C-2.70045182 1.80030122 -5.06677881 2.93377066 -8.0625 4.125 C-9.37927734 4.65480469 -9.37927734 4.65480469 -10.72265625 5.1953125 C-13 6 -13 6 -15 6 C-14 3 -14 3 -10.875 1.3125 C-7.20642866 -0.14581407 -3.94606007 -0.24159551 0 0 Z " fill="#CCBE46" transform="translate(215,196)"/>
<path d="M0 0 C0.99 0.33 1.98 0.66 3 1 C1.85845641 2.83600745 0.71165684 4.66874805 -0.4375 6.5 C-1.07558594 7.5209375 -1.71367187 8.541875 -2.37109375 9.59375 C-2.90863281 10.3878125 -3.44617188 11.181875 -4 12 C-4.33 12 -4.66 12 -5 12 C-5 10.35 -5 8.7 -5 7 C-4.34 7 -3.68 7 -3 7 C-2.67 5.35 -2.34 3.7 -2 2 C-1.34 2 -0.68 2 0 2 C0 1.34 0 0.68 0 0 Z " fill="#CCBB3B" transform="translate(195,141)"/>
<path d="M0 0 C0.99 0 1.98 0 3 0 C2.43589129 3.94876098 1.34264206 6.75634176 -1 10 C-1.99 10.33 -2.98 10.66 -4 11 C-3.34 9.02 -2.68 7.04 -2 5 C-1.67 5 -1.34 5 -1 5 C-0.67 3.35 -0.34 1.7 0 0 Z " fill="#EADB6C" transform="translate(272,132)"/>
<path d="M0 0 C0.33 0 0.66 0 1 0 C2.25 6.625 2.25 6.625 0 10 C-0.66 10 -1.32 10 -2 10 C-3.05236973 6.65155086 -3.20005388 5.40920111 -1.625 2.1875 C-1.08875 1.465625 -0.5525 0.74375 0 0 Z " fill="#D4BF3B" transform="translate(367,333)"/>
<path d="M0 0 C1.8125 0.1875 1.8125 0.1875 4 1 C5.75 3.5625 5.75 3.5625 7 6 C4.625 6.125 4.625 6.125 2 6 C1.34 5.34 0.68 4.68 0 4 C0 2.68 0 1.36 0 0 Z " fill="#C8B63F" transform="translate(194,322)"/>
<path d="M0 0 C0.66 0 1.32 0 2 0 C2 0.66 2 1.32 2 2 C2.99 2.33 3.98 2.66 5 3 C4.67 4.65 4.34 6.3 4 8 C2.68 7.67 1.36 7.34 0 7 C0 4.69 0 2.38 0 0 Z " fill="#DDC32B" transform="translate(392,208)"/>
<path d="M0 0 C-0.375 1.9375 -0.375 1.9375 -1 4 C-1.99 4.495 -1.99 4.495 -3 5 C-3 4.34 -3 3.68 -3 3 C-3.99 3 -4.98 3 -6 3 C-6.33 3.66 -6.66 4.32 -7 5 C-7.33 4.34 -7.66 3.68 -8 3 C-5.53387212 -0.1151089 -3.89156016 -0.31553191 0 0 Z " fill="#E8CD3A" transform="translate(307,354)"/>
<path d="M0 0 C0.66 0.66 1.32 1.32 2 2 C1.77256695 4.95662966 1.38764062 6.55033688 -0.5625 8.8125 C-1.036875 9.204375 -1.51125 9.59625 -2 10 C-2.89868727 7.48367565 -3.1616905 6.39267692 -2.125 3.875 C-1.75375 3.25625 -1.3825 2.6375 -1 2 C-0.67 1.34 -0.34 0.68 0 0 Z " fill="#D0BE33" transform="translate(395,286)"/>
<path d="M0 0 C0.33 0.99 0.66 1.98 1 3 C0.01 3.66 -0.98 4.32 -2 5 C-2.72382467 7.05925139 -2.72382467 7.05925139 -3 9 C-3.28875 8.360625 -3.5775 7.72125 -3.875 7.0625 C-4.82823451 4.84793921 -4.82823451 4.84793921 -7 4 C-4.69 2.68 -2.38 1.36 0 0 Z " fill="#D2BF41" transform="translate(323,278)"/>
<path d="M0 0 C0.66 0 1.32 0 2 0 C3.36421031 2.72842061 2.87807211 4.60953318 2.5625 7.625 C2.40974609 9.12933594 2.40974609 9.12933594 2.25390625 10.6640625 C2.17011719 11.43492187 2.08632812 12.20578125 2 13 C1.67 13 1.34 13 1 13 C0.63779734 11.20994059 0.28547531 9.41787943 -0.0625 7.625 C-0.25972656 6.62726563 -0.45695313 5.62953125 -0.66015625 4.6015625 C-1 2 -1 2 0 0 Z " fill="#CAB42D" transform="translate(148,272)"/>
<path d="M0 0 C0.99 0.33 1.98 0.66 3 1 C0.03 4.96 0.03 4.96 -3 9 C-3.66 7.68 -4.32 6.36 -5 5 C-4.34 5 -3.68 5 -3 5 C-3 4.34 -3 3.68 -3 3 C-2.34 3 -1.68 3 -1 3 C-0.67 2.01 -0.34 1.02 0 0 Z " fill="#C2AD34" transform="translate(374,329)"/>
<path d="M0 0 C0.99 0.66 1.98 1.32 3 2 C3 2.99 3 3.98 3 5 C-4.75 4.25 -4.75 4.25 -7 2 C-6.01 1.67 -5.02 1.34 -4 1 C-4 1.66 -4 2.32 -4 3 C-2.68 3 -1.36 3 0 3 C0 2.01 0 1.02 0 0 Z " fill="#D4B743" transform="translate(192,211)"/>
<path d="M0 0 C0.33 0.66 0.66 1.32 1 2 C-0.43775696 5.21783702 -2.04417512 8.06626269 -4 11 C-4.99 10.67 -5.98 10.34 -7 10 C-3.535 5.05 -3.535 5.05 0 0 Z " fill="#B29F2D" transform="translate(129,162)"/>
<path d="M0 0 C5.75 0.75 5.75 0.75 8 3 C8.680625 3.144375 9.36125 3.28875 10.0625 3.4375 C10.701875 3.623125 11.34125 3.80875 12 4 C12.33 4.99 12.66 5.98 13 7 C8.1725201 5.58707905 4.2837641 3.57025846 0 1 C0 0.67 0 0.34 0 0 Z " fill="#9B8926" transform="translate(221,363)"/>
<path d="M0 0 C-4.10542266 2.29903669 -8.69099505 4.35523153 -13.4375 3.625 C-13.953125 3.41875 -14.46875 3.2125 -15 3 C-10.38649226 -0.07567183 -5.44961357 -0.16513981 0 0 Z " fill="#BBA832" transform="translate(303,328)"/>
<path d="M0 0 C0.33 1.32 0.66 2.64 1 4 C0.34 4 -0.32 4 -1 4 C-1.33 4.99 -1.66 5.98 -2 7 C-2.66 7 -3.32 7 -4 7 C-4 5.02 -4 3.04 -4 1 C-2 0 -2 0 0 0 Z " fill="#D2C13C" transform="translate(349,321)"/>
<path d="M0 0 C0.99 0.66 1.98 1.32 3 2 C2.01 2 1.02 2 0 2 C0 2.66 0 3.32 0 4 C-3.96 5.98 -3.96 5.98 -8 8 C-8 7.01 -8 6.02 -8 5 C-5.625 3.25 -5.625 3.25 -3 2 C-2.34 2.33 -1.68 2.66 -1 3 C-0.67 2.01 -0.34 1.02 0 0 Z " fill="#A89730" transform="translate(320,317)"/>
<path d="M0 0 C1.32 1.32 2.64 2.64 4 4 C3.67 4.99 3.34 5.98 3 7 C2.34 7 1.68 7 1 7 C0.67 7.99 0.34 8.98 0 10 C-1.125 6.25 -1.125 6.25 0 4 C0 2.68 0 1.36 0 0 Z " fill="#E6CF3D" transform="translate(179,288)"/>
<path d="M0 0 C2.82248136 3.19063111 3.72851238 5.74669397 4 10 C3.01 11.485 3.01 11.485 2 13 C-0.28571429 4.57142857 -0.28571429 4.57142857 0 0 Z " fill="#B7A62E" transform="translate(124,275)"/>
<path d="M0 0 C-0.66 2.31 -1.32 4.62 -2 7 C-2.33 6.34 -2.66 5.68 -3 5 C-5.02463255 4.34786708 -5.02463255 4.34786708 -7 4 C-2.25 0 -2.25 0 0 0 Z " fill="#D4BB44" transform="translate(264,239)"/>
<path d="M0 0 C1.65 1.65 3.3 3.3 5 5 C4.67 5.66 4.34 6.32 4 7 C2.0625 6.6875 2.0625 6.6875 0 6 C-1 3 -1 3 0 0 Z " fill="#CDBA2E" transform="translate(386,152)"/>
<path d="M0 0 C0.33 0.66 0.66 1.32 1 2 C1.99 2 2.98 2 4 2 C4 3.32 4 4.64 4 6 C2.0625 5.6875 2.0625 5.6875 0 5 C-0.33 4.01 -0.66 3.02 -1 2 C-1.66 1.67 -2.32 1.34 -3 1 C-2.01 0.67 -1.02 0.34 0 0 Z " fill="#D0BC3E" transform="translate(182,329)"/>
<path d="M0 0 C1.32 0 2.64 0 4 0 C4.33 2.31 4.66 4.62 5 7 C5.99 7.33 6.98 7.66 8 8 C7.01 9.485 7.01 9.485 6 11 C4.99735282 9.35577799 3.99794896 7.70957779 3 6.0625 C2.443125 5.14597656 1.88625 4.22945313 1.3125 3.28515625 C0 1 0 1 0 0 Z " fill="#B2A028" transform="translate(136,313)"/>
<path d="M0 0 C0.66 0 1.32 0 2 0 C3.16063604 4.25566547 2.76173392 7.6835078 2 12 C1.67 12 1.34 12 1 12 C0.01751476 7.9472484 -0.08159574 4.16138263 0 0 Z " fill="#C6B231" transform="translate(407,252)"/>
<path d="M0 0 C0.33 0.99 0.66 1.98 1 3 C-1.35953094 5.35953094 -2.77895617 5.49141413 -6 6 C-5.8125 4.125 -5.8125 4.125 -5 2 C-2.4375 0.75 -2.4375 0.75 0 0 Z " fill="#E4CE2D" transform="translate(134,163)"/>
<path d="M0 0 C0.598125 0.20625 1.19625 0.4125 1.8125 0.625 C1.4825 1.945 1.1525 3.265 0.8125 4.625 C-1.1675 3.635 -3.1475 2.645 -5.1875 1.625 C-2.1875 -0.375 -2.1875 -0.375 0 0 Z " fill="#C3B43C" transform="translate(238.1875,367.375)"/>
<path d="M0 0 C0 2.62113708 -0.31292445 4.50935112 -1 7 C-2.98 7.33 -4.96 7.66 -7 8 C-6.02133662 6.85373678 -5.04205413 5.70800212 -4.0625 4.5625 C-3.51722656 3.92441406 -2.97195313 3.28632813 -2.41015625 2.62890625 C-1.63204305 1.73008851 -0.84063472 0.84063472 0 0 Z " fill="#C0AE30" transform="translate(307,347)"/>
<path d="M0 0 C0.33 0 0.66 0 1 0 C1 2.97 1 5.94 1 9 C0.34 9 -0.32 9 -1 9 C-1 9.66 -1 10.32 -1 11 C-1.66 11 -2.32 11 -3 11 C-2.01 7.37 -1.02 3.74 0 0 Z " fill="#B7A332" transform="translate(364,322)"/>
<path d="M0 0 C-0.33 1.65 -0.66 3.3 -1 5 C-4.16115776 3.63016497 -4.9927092 3.0109362 -7 0 C-3.98968256 -0.93423645 -3.13349732 -1.04449911 0 0 Z " fill="#D2B532" transform="translate(200,306)"/>
<path d="M0 0 C0.66 0 1.32 0 2 0 C1.67 2.31 1.34 4.62 1 7 C-0.32 7.33 -1.64 7.66 -3 8 C-3 7.01 -3 6.02 -3 5 C-2.34 5 -1.68 5 -1 5 C-0.67 3.35 -0.34 1.7 0 0 Z " fill="#DBC53B" transform="translate(374,293)"/>
<path d="M0 0 C0.99 0.33 1.98 0.66 3 1 C3 2.32 3 3.64 3 5 C3.66 5.33 4.32 5.66 5 6 C4.67 6.66 4.34 7.32 4 8 C3.01 7.67 2.02 7.34 1 7 C0.67 4.69 0.34 2.38 0 0 Z " fill="#C6AF30" transform="translate(403,236)"/>
<path d="M0 0 C0.33 0.66 0.66 1.32 1 2 C-0.4726862 5.27263601 -1.42695432 6.72014048 -4.6875 8.3125 C-5.450625 8.539375 -6.21375 8.76625 -7 9 C-6.02180976 7.68677212 -5.0424189 6.37443848 -4.0625 5.0625 C-3.51722656 4.33160156 -2.97195312 3.60070312 -2.41015625 2.84765625 C-1 1 -1 1 0 0 Z " fill="#CDA63B" transform="translate(209,213)"/>
<path d="M0 0 C1.5625 1.8125 1.5625 1.8125 3 4 C2.67 4.99 2.34 5.98 2 7 C-0.91517292 5.92598892 -2.77810176 5.22189824 -5 3 C-3.68 3 -2.36 3 -1 3 C-0.67 3.33 -0.34 3.66 0 4 C0 2.68 0 1.36 0 0 Z " fill="#CC9F30" transform="translate(332,196)"/>
<path d="M0 0 C2.76276177 0.52268466 5.3260876 1.10869587 8 2 C8.33 2.99 8.66 3.98 9 5 C5 5 5 5 2.25 2.5 C1.5075 1.675 0.765 0.85 0 0 Z " fill="#E3D360" transform="translate(299,112)"/>
<path d="M0 0 C2.97 0.495 2.97 0.495 6 1 C4.63016497 4.16115776 4.0109362 4.9927092 1 7 C0.67 4.69 0.34 2.38 0 0 Z " fill="#B59F2A" transform="translate(359,342)"/>
<path d="M0 0 C2 0.9375 2 0.9375 4 3 C4.36475845 6.02534949 4.22893297 8.96663814 4 12 C1.90029019 8.0828943 1.00665438 4.31423304 0 0 Z " fill="#B9A730" transform="translate(127,289)"/>
<path d="M0 0 C0.33 0 0.66 0 1 0 C1.49230769 6.4 1.49230769 6.4 -1 9.4375 C-1.99 10.2109375 -1.99 10.2109375 -3 11 C-3 8.04725901 -2.56108169 6.50941597 -1.5 3.8125 C-1.2215625 3.09707031 -0.943125 2.38164062 -0.65625 1.64453125 C-0.33140625 0.83048828 -0.33140625 0.83048828 0 0 Z " fill="#C9B042" transform="translate(236,202)"/>
<path d="M0 0 C2 3 2 3 2 6 C1.01 6.33 0.02 6.66 -1 7 C-1.33 6.01 -1.66 5.02 -2 4 C-2.66 3.67 -3.32 3.34 -4 3 C-2.68 2.01 -1.36 1.02 0 0 Z " fill="#EBD95A" transform="translate(182,193)"/>
<path d="M0 0 C0.33 0.66 0.66 1.32 1 2 C0.34 2 -0.32 2 -1 2 C-1 2.66 -1 3.32 -1 4 C-1.99 4.33 -2.98 4.66 -4 5 C-4.33 5.66 -4.66 6.32 -5 7 C-6.32 6.67 -7.64 6.34 -9 6 C-6.03 4.02 -3.06 2.04 0 0 Z " fill="#C6A935" transform="translate(172,123)"/>
<path d="M0 0 C2.475 0.99 2.475 0.99 5 2 C4.01 2.495 4.01 2.495 3 3 C3 3.66 3 4.32 3 5 C1.0625 4.625 1.0625 4.625 -1 4 C-1.33 3.34 -1.66 2.68 -2 2 C-1.34 2 -0.68 2 0 2 C0 1.34 0 0.68 0 0 Z " fill="#E8CC3A" transform="translate(295,360)"/>
<path d="M0 0 C0.99 0 1.98 0 3 0 C3.33 0.99 3.66 1.98 4 3 C4.99 3.66 5.98 4.32 7 5 C5.68 5.33 4.36 5.66 3 6 C1.68 4.35 0.36 2.7 -1 1 C-0.67 0.67 -0.34 0.34 0 0 Z M1 6 C1.66 6 2.32 6 3 6 C2.67 6.66 2.34 7.32 2 8 C1.67 7.34 1.34 6.68 1 6 Z " fill="#E6CF44" transform="translate(216,350)"/>
<path d="M0 0 C-4.75 3.875 -4.75 3.875 -7 5 C-7 3.68 -7 2.36 -7 1 C-3.375 -1.125 -3.375 -1.125 0 0 Z " fill="#B9A731" transform="translate(322,351)"/>
<path d="M0 0 C0.33 0.66 0.66 1.32 1 2 C1.66 2 2.32 2 3 2 C3 2.66 3 3.32 3 4 C3.66 4 4.32 4 5 4 C5 4.66 5 5.32 5 6 C5.66 6 6.32 6 7 6 C6.67 6.66 6.34 7.32 6 8 C4.68 7.34 3.36 6.68 2 6 C2 5.01 2 4.02 2 3 C1.01 3 0.02 3 -1 3 C-0.67 2.01 -0.34 1.02 0 0 Z " fill="#B2A32D" transform="translate(217,347)"/>
<path d="M0 0 C2 2 2 2 2.125 4.625 C2.08375 5.40875 2.0425 6.1925 2 7 C0.35 7 -1.3 7 -3 7 C-3.33 6.34 -3.66 5.68 -4 5 C-2.68 5 -1.36 5 0 5 C0 3.35 0 1.7 0 0 Z " fill="#CDBB3D" transform="translate(167,343)"/>
<path d="M0 0 C0.66 0 1.32 0 2 0 C2.19622241 4.21878192 1.80230168 7.17010894 0 11 C-0.33 11 -0.66 11 -1 11 C-0.67 7.37 -0.34 3.74 0 0 Z " fill="#C3A233" transform="translate(373,287)"/>
<path d="M0 0 C2.0625 0.4375 2.0625 0.4375 4 1 C0.75490696 3.03977277 -2.40608886 4.66511872 -6 6 C-4 4 -2 2 0 0 Z " fill="#D1AE41" transform="translate(270,233)"/>
<path d="M0 0 C1.88343932 3.76687864 2.22057835 5.02958963 2 9 C1.01 9.33 0.02 9.66 -1 10 C-0.67 6.7 -0.34 3.4 0 0 Z " fill="#C5B433" transform="translate(126,222)"/>
<path d="M0 0 C2.17175481 3.25763222 2.46043998 4.22439213 2 8 C1.01 9.32 0.02 10.64 -1 12 C-0.67 8.04 -0.34 4.08 0 0 Z " fill="#AF9A27" transform="translate(103,217)"/>
<path d="M0 0 C1.32 0 2.64 0 4 0 C4.33 1.65 4.66 3.3 5 5 C2.69 4.34 0.38 3.68 -2 3 C-1.34 2.01 -0.68 1.02 0 0 Z " fill="#F0DF60" transform="translate(319,128)"/>
<path d="M0 0 C0.66 0.33 1.32 0.66 2 1 C2 1.99 2 2.98 2 4 C1.34 4 0.68 4 0 4 C-0.33 4.99 -0.66 5.98 -1 7 C-1.66 7 -2.32 7 -3 7 C-2.38722388 4.03824877 -1.74627478 2.61941217 0 0 Z " fill="#E8D242" transform="translate(160,330)"/>
<path d="M0 0 C1.32 0.66 2.64 1.32 4 2 C3.67 3.32 3.34 4.64 3 6 C2.34 6 1.68 6 1 6 C0.34 4.35 -0.32 2.7 -1 1 C-0.67 0.67 -0.34 0.34 0 0 Z " fill="#E6CF3E" transform="translate(140,314)"/>
<path d="M0 0 C1.65 0.33 3.3 0.66 5 1 C3.35 2.65 1.7 4.3 0 6 C-0.66 5.01 -1.32 4.02 -2 3 C-1.34 3 -0.68 3 0 3 C0 2.01 0 1.02 0 0 Z " fill="#D0C03C" transform="translate(324,312)"/>
<path d="M0 0 C0.103125 0.639375 0.20625 1.27875 0.3125 1.9375 C0.539375 2.618125 0.76625 3.29875 1 4 C1.99 4.33 2.98 4.66 4 5 C3.67 6.65 3.34 8.3 3 10 C0.64551835 7.44931155 0.01672076 6.28982642 -0.1875 2.75 C-0.125625 1.8425 -0.06375 0.935 0 0 Z " fill="#C1AD35" transform="translate(156,289)"/>
<path d="M0 0 C0.33 1.32 0.66 2.64 1 4 C-1.475 5.485 -1.475 5.485 -4 7 C-4.66 6.34 -5.32 5.68 -6 5 C-4.02 3.35 -2.04 1.7 0 0 Z " fill="#C9B73D" transform="translate(330,272)"/>
<path d="M0 0 C0.66 0.99 1.32 1.98 2 3 C1.01 4.485 1.01 4.485 0 6 C-0.99 5.67 -1.98 5.34 -3 5 C-2.625 3.0625 -2.625 3.0625 -2 1 C-1.34 0.67 -0.68 0.34 0 0 Z " fill="#EDD952" transform="translate(348,241)"/>
<path d="M0 0 C0.66 0 1.32 0 2 0 C1.690625 0.7425 1.38125 1.485 1.0625 2.25 C0.1905075 4.50692176 -0.47667007 6.6450153 -1 9 C-1.66 9 -2.32 9 -3 9 C-2.5020163 5.26512223 -2.12508244 3.18762365 0 0 Z " fill="#C2B438" transform="translate(212,218)"/>
<path d="M0 0 C1.32 0.33 2.64 0.66 4 1 C2.07423885 3.43929746 0.19909405 5.80090595 -2 8 C-1.125 2.25 -1.125 2.25 0 0 Z " fill="#C6B53C" transform="translate(234,221)"/>
<path d="M0 0 C0.99 0.33 1.98 0.66 3 1 C3.1875 3.375 3.1875 3.375 3 6 C2.01 6.66 1.02 7.32 0 8 C-0.98120464 4.94736336 -0.98120464 3.05263664 0 0 Z " fill="#C0AA27" transform="translate(105,210)"/>
<path d="M0 0 C0.33 0.66 0.66 1.32 1 2 C1.66 2 2.32 2 3 2 C3 2.66 3 3.32 3 4 C4.32 4.66 5.64 5.32 7 6 C6.67 6.66 6.34 7.32 6 8 C5.34 8 4.68 8 4 8 C4 7.01 4 6.02 4 5 C2.68 4.67 1.36 4.34 0 4 C0 2.68 0 1.36 0 0 Z " fill="#B7A52F" transform="translate(227,357)"/>
<path d="M0 0 C0.33 1.32 0.66 2.64 1 4 C-0.98 4.99 -0.98 4.99 -3 6 C-3.33 5.01 -3.66 4.02 -4 3 C-2.68 2.01 -1.36 1.02 0 0 Z " fill="#EACF3D" transform="translate(365,333)"/>
<path d="M0 0 C0.33 0.99 0.66 1.98 1 3 C-0.9375 6.1875 -0.9375 6.1875 -3 9 C-3.66 7.68 -4.32 6.36 -5 5 C-4.01 5 -3.02 5 -2 5 C-2 4.01 -2 3.02 -2 2 C-1.34 2 -0.68 2 0 2 C0 1.34 0 0.68 0 0 Z " fill="#B8A52D" transform="translate(382,319)"/>
<path d="M0 0 C4.875 2.75 4.875 2.75 6 5 C4.02 5.99 4.02 5.99 2 7 C0.5393715 4.35261084 0 3.10551666 0 0 Z " fill="#E3CC3A" transform="translate(127,286)"/>
<path d="M0 0 C0.66 0.33 1.32 0.66 2 1 C0.35 2.32 -1.3 3.64 -3 5 C-4.32 4.34 -5.64 3.68 -7 3 C-4.66785852 1.79371992 -2.50357861 0.8345262 0 0 Z " fill="#AF9D2D" transform="translate(313,283)"/>
<path d="M0 0 C0.33 0 0.66 0 1 0 C0.67 2.97 0.34 5.94 0 9 C-0.66 8.67 -1.32 8.34 -2 8 C-1.125 2.25 -1.125 2.25 0 0 Z " fill="#BDAC38" transform="translate(398,277)"/>
<path d="M0 0 C0.33 0 0.66 0 1 0 C1 2.64 1 5.28 1 8 C0.01 7.67 -0.98 7.34 -2 7 C-1.34 4.69 -0.68 2.38 0 0 Z " fill="#CFB636" transform="translate(114,264)"/>
<path d="M0 0 C0.66 0.99 1.32 1.98 2 3 C0.35 4.65 -1.3 6.3 -3 8 C-3 4.42424104 -1.91159393 2.94704065 0 0 Z " fill="#C7B439" transform="translate(338,260)"/>
<path d="M0 0 C1.42944945 2.35438733 2.08661261 3.48032433 1.625 6.25 C1.41875 6.8275 1.2125 7.405 1 8 C0.34 8 -0.32 8 -1 8 C-2.2077558 4.37673261 -1.54311128 3.35853631 0 0 Z " fill="#EDD953" transform="translate(317,236)"/>
<path d="M0 0 C0.66 0 1.32 0 2 0 C5 4.38461538 5 4.38461538 5 7 C3.0625 6.3125 3.0625 6.3125 1 5 C0.25 2.375 0.25 2.375 0 0 Z " fill="#C2AE2F" transform="translate(399,171)"/>
</svg>
